<mxfile host="app.diagrams.net" modified="2024-04-24T10:51:26.222Z" agent="Mozilla/5.0 (Windows NT 10.0; Win64; x64) AppleWebKit/537.36 (KHTML, like Gecko) Chrome/124.0.0.0 Safari/537.36" etag="sTkszKhEaOdZNQTyYA3B" version="24.2.9" type="device">
  <diagram name="페이지-1" id="MwEd6E1gdcDkhidKaNLA">
    <mxGraphModel dx="3341" dy="908" grid="1" gridSize="10" guides="1" tooltips="1" connect="1" arrows="1" fold="1" page="1" pageScale="1" pageWidth="827" pageHeight="1169" math="0" shadow="0">
      <root>
        <mxCell id="0" />
        <mxCell id="1" parent="0" />
        <mxCell id="QMlob4MlyVVxAFYZ2pW8-58" style="edgeStyle=orthogonalEdgeStyle;rounded=0;orthogonalLoop=1;jettySize=auto;html=1;exitX=0.5;exitY=1;exitDx=0;exitDy=0;strokeWidth=2;" parent="1" source="QMlob4MlyVVxAFYZ2pW8-42" target="QMlob4MlyVVxAFYZ2pW8-48" edge="1">
          <mxGeometry relative="1" as="geometry" />
        </mxCell>
        <mxCell id="QMlob4MlyVVxAFYZ2pW8-42" value="선제 공격&lt;div&gt;시작&lt;/div&gt;" style="rounded=1;whiteSpace=wrap;html=1;arcSize=50;strokeWidth=2;fontSize=10;fontStyle=1" parent="1" vertex="1">
          <mxGeometry x="-320" y="1440" width="120" height="40" as="geometry" />
        </mxCell>
        <mxCell id="QMlob4MlyVVxAFYZ2pW8-59" style="edgeStyle=orthogonalEdgeStyle;rounded=0;orthogonalLoop=1;jettySize=auto;html=1;exitX=0.5;exitY=1;exitDx=0;exitDy=0;strokeWidth=2;" parent="1" source="QMlob4MlyVVxAFYZ2pW8-48" target="QMlob4MlyVVxAFYZ2pW8-54" edge="1">
          <mxGeometry relative="1" as="geometry" />
        </mxCell>
        <mxCell id="QMlob4MlyVVxAFYZ2pW8-61" style="edgeStyle=orthogonalEdgeStyle;rounded=0;orthogonalLoop=1;jettySize=auto;html=1;exitX=1;exitY=0.5;exitDx=0;exitDy=0;entryX=1;entryY=0.5;entryDx=0;entryDy=0;strokeColor=#990000;strokeWidth=2;" parent="1" source="QMlob4MlyVVxAFYZ2pW8-48" target="QMlob4MlyVVxAFYZ2pW8-56" edge="1">
          <mxGeometry relative="1" as="geometry" />
        </mxCell>
        <mxCell id="QMlob4MlyVVxAFYZ2pW8-48" value="악점 공격?" style="rhombus;whiteSpace=wrap;html=1;strokeWidth=2;fontSize=10;fontStyle=1" parent="1" vertex="1">
          <mxGeometry x="-320" y="1500" width="120" height="40" as="geometry" />
        </mxCell>
        <mxCell id="QMlob4MlyVVxAFYZ2pW8-60" style="edgeStyle=orthogonalEdgeStyle;rounded=0;orthogonalLoop=1;jettySize=auto;html=1;exitX=0.5;exitY=1;exitDx=0;exitDy=0;strokeWidth=2;" parent="1" source="QMlob4MlyVVxAFYZ2pW8-54" target="QMlob4MlyVVxAFYZ2pW8-56" edge="1">
          <mxGeometry relative="1" as="geometry" />
        </mxCell>
        <mxCell id="QMlob4MlyVVxAFYZ2pW8-54" value="타격 속성이&amp;nbsp;&lt;div&gt;약점인 몬스터&amp;nbsp;&lt;/div&gt;&lt;div&gt;강인도 감소&lt;/div&gt;" style="rounded=1;whiteSpace=wrap;html=1;arcSize=0;strokeWidth=2;fontSize=10;fontStyle=1" parent="1" vertex="1">
          <mxGeometry x="-320" y="1560" width="120" height="40" as="geometry" />
        </mxCell>
        <mxCell id="QMlob4MlyVVxAFYZ2pW8-55" value="전투 시작" style="rounded=1;whiteSpace=wrap;html=1;arcSize=50;strokeWidth=2;fontSize=10;fontStyle=1" parent="1" vertex="1">
          <mxGeometry x="-320" y="1680" width="120" height="40" as="geometry" />
        </mxCell>
        <mxCell id="QMlob4MlyVVxAFYZ2pW8-62" style="edgeStyle=orthogonalEdgeStyle;rounded=0;orthogonalLoop=1;jettySize=auto;html=1;exitX=0.5;exitY=1;exitDx=0;exitDy=0;strokeWidth=2;" parent="1" source="QMlob4MlyVVxAFYZ2pW8-56" target="QMlob4MlyVVxAFYZ2pW8-55" edge="1">
          <mxGeometry relative="1" as="geometry" />
        </mxCell>
        <mxCell id="QMlob4MlyVVxAFYZ2pW8-56" value="전투에서 PC 먼저 행동" style="rounded=1;whiteSpace=wrap;html=1;arcSize=0;strokeWidth=2;fontSize=10;fontStyle=1" parent="1" vertex="1">
          <mxGeometry x="-320" y="1620" width="120" height="40" as="geometry" />
        </mxCell>
        <mxCell id="QMlob4MlyVVxAFYZ2pW8-74" style="edgeStyle=orthogonalEdgeStyle;rounded=0;orthogonalLoop=1;jettySize=auto;html=1;exitX=0.5;exitY=1;exitDx=0;exitDy=0;entryX=0.5;entryY=0;entryDx=0;entryDy=0;strokeWidth=2;" parent="1" source="QMlob4MlyVVxAFYZ2pW8-63" target="QMlob4MlyVVxAFYZ2pW8-64" edge="1">
          <mxGeometry relative="1" as="geometry" />
        </mxCell>
        <mxCell id="QMlob4MlyVVxAFYZ2pW8-63" value="몬스터 필드 행동&lt;div&gt;시작&lt;/div&gt;" style="rounded=1;whiteSpace=wrap;html=1;arcSize=50;strokeWidth=2;fontSize=10;fontStyle=1" parent="1" vertex="1">
          <mxGeometry x="980.03" y="440" width="120" height="40" as="geometry" />
        </mxCell>
        <mxCell id="QMlob4MlyVVxAFYZ2pW8-76" style="edgeStyle=orthogonalEdgeStyle;rounded=0;orthogonalLoop=1;jettySize=auto;html=1;exitX=0.5;exitY=1;exitDx=0;exitDy=0;entryX=0.5;entryY=0;entryDx=0;entryDy=0;strokeWidth=2;" parent="1" source="QMlob4MlyVVxAFYZ2pW8-64" target="QMlob4MlyVVxAFYZ2pW8-65" edge="1">
          <mxGeometry relative="1" as="geometry" />
        </mxCell>
        <mxCell id="QMlob4MlyVVxAFYZ2pW8-64" value="몬스터 기본 행동" style="rounded=1;whiteSpace=wrap;html=1;arcSize=0;strokeWidth=2;fontSize=10;fontStyle=1" parent="1" vertex="1">
          <mxGeometry x="980.03" y="500" width="120" height="40" as="geometry" />
        </mxCell>
        <mxCell id="QMlob4MlyVVxAFYZ2pW8-77" style="edgeStyle=orthogonalEdgeStyle;rounded=0;orthogonalLoop=1;jettySize=auto;html=1;exitX=0.5;exitY=1;exitDx=0;exitDy=0;strokeWidth=2;" parent="1" source="QMlob4MlyVVxAFYZ2pW8-65" target="QMlob4MlyVVxAFYZ2pW8-66" edge="1">
          <mxGeometry relative="1" as="geometry" />
        </mxCell>
        <mxCell id="QMlob4MlyVVxAFYZ2pW8-90" style="edgeStyle=orthogonalEdgeStyle;rounded=0;orthogonalLoop=1;jettySize=auto;html=1;exitX=1;exitY=0.5;exitDx=0;exitDy=0;entryX=1;entryY=0.5;entryDx=0;entryDy=0;strokeColor=#990000;strokeWidth=2;" parent="1" source="QMlob4MlyVVxAFYZ2pW8-65" target="QMlob4MlyVVxAFYZ2pW8-64" edge="1">
          <mxGeometry relative="1" as="geometry" />
        </mxCell>
        <mxCell id="QMlob4MlyVVxAFYZ2pW8-65" value="PC 인식 범위 안?" style="rhombus;whiteSpace=wrap;html=1;strokeWidth=2;fontSize=10;fontStyle=1" parent="1" vertex="1">
          <mxGeometry x="980.03" y="560" width="120" height="40" as="geometry" />
        </mxCell>
        <mxCell id="QMlob4MlyVVxAFYZ2pW8-78" style="edgeStyle=orthogonalEdgeStyle;rounded=0;orthogonalLoop=1;jettySize=auto;html=1;exitX=0.5;exitY=1;exitDx=0;exitDy=0;entryX=0.5;entryY=0;entryDx=0;entryDy=0;strokeWidth=2;" parent="1" source="QMlob4MlyVVxAFYZ2pW8-66" target="QMlob4MlyVVxAFYZ2pW8-69" edge="1">
          <mxGeometry relative="1" as="geometry" />
        </mxCell>
        <mxCell id="QMlob4MlyVVxAFYZ2pW8-91" style="edgeStyle=orthogonalEdgeStyle;rounded=0;orthogonalLoop=1;jettySize=auto;html=1;exitX=1;exitY=0.5;exitDx=0;exitDy=0;entryX=1;entryY=0.5;entryDx=0;entryDy=0;strokeColor=#990000;strokeWidth=2;" parent="1" source="QMlob4MlyVVxAFYZ2pW8-66" target="QMlob4MlyVVxAFYZ2pW8-64" edge="1">
          <mxGeometry relative="1" as="geometry" />
        </mxCell>
        <mxCell id="QMlob4MlyVVxAFYZ2pW8-66" value="PC 시야에?" style="rhombus;whiteSpace=wrap;html=1;strokeWidth=2;fontSize=10;fontStyle=1" parent="1" vertex="1">
          <mxGeometry x="980.03" y="620" width="120" height="40" as="geometry" />
        </mxCell>
        <mxCell id="QMlob4MlyVVxAFYZ2pW8-82" style="edgeStyle=orthogonalEdgeStyle;rounded=0;orthogonalLoop=1;jettySize=auto;html=1;exitX=0.5;exitY=1;exitDx=0;exitDy=0;entryX=0.5;entryY=0;entryDx=0;entryDy=0;strokeWidth=2;" parent="1" source="QMlob4MlyVVxAFYZ2pW8-68" target="QMlob4MlyVVxAFYZ2pW8-73" edge="1">
          <mxGeometry relative="1" as="geometry" />
        </mxCell>
        <mxCell id="QMlob4MlyVVxAFYZ2pW8-92" style="edgeStyle=orthogonalEdgeStyle;rounded=0;orthogonalLoop=1;jettySize=auto;html=1;exitX=1;exitY=0.5;exitDx=0;exitDy=0;entryX=1;entryY=0.5;entryDx=0;entryDy=0;strokeColor=#990000;strokeWidth=2;" parent="1" source="QMlob4MlyVVxAFYZ2pW8-68" target="QMlob4MlyVVxAFYZ2pW8-64" edge="1">
          <mxGeometry relative="1" as="geometry" />
        </mxCell>
        <mxCell id="QMlob4MlyVVxAFYZ2pW8-68" value="인식 시간&lt;div&gt;지났는가?&lt;/div&gt;" style="rhombus;whiteSpace=wrap;html=1;strokeWidth=2;fontSize=10;fontStyle=1" parent="1" vertex="1">
          <mxGeometry x="980.03" y="740" width="120" height="40" as="geometry" />
        </mxCell>
        <mxCell id="QMlob4MlyVVxAFYZ2pW8-79" style="edgeStyle=orthogonalEdgeStyle;rounded=0;orthogonalLoop=1;jettySize=auto;html=1;exitX=0;exitY=0.5;exitDx=0;exitDy=0;strokeWidth=2;" parent="1" source="QMlob4MlyVVxAFYZ2pW8-69" target="QMlob4MlyVVxAFYZ2pW8-70" edge="1">
          <mxGeometry relative="1" as="geometry" />
        </mxCell>
        <mxCell id="QMlob4MlyVVxAFYZ2pW8-69" value="PC 발견" style="rounded=1;whiteSpace=wrap;html=1;arcSize=0;strokeWidth=2;fontSize=10;fontStyle=1" parent="1" vertex="1">
          <mxGeometry x="980.03" y="680" width="120" height="40" as="geometry" />
        </mxCell>
        <mxCell id="QMlob4MlyVVxAFYZ2pW8-80" style="edgeStyle=orthogonalEdgeStyle;rounded=0;orthogonalLoop=1;jettySize=auto;html=1;exitX=0.5;exitY=1;exitDx=0;exitDy=0;strokeWidth=2;" parent="1" source="QMlob4MlyVVxAFYZ2pW8-70" target="QMlob4MlyVVxAFYZ2pW8-72" edge="1">
          <mxGeometry relative="1" as="geometry" />
        </mxCell>
        <mxCell id="QMlob4MlyVVxAFYZ2pW8-70" value="몬스터 발견 상태" style="rounded=1;whiteSpace=wrap;html=1;arcSize=0;strokeWidth=2;fontSize=10;fontStyle=1" parent="1" vertex="1">
          <mxGeometry x="840.03" y="680" width="120" height="40" as="geometry" />
        </mxCell>
        <mxCell id="QMlob4MlyVVxAFYZ2pW8-81" style="edgeStyle=orthogonalEdgeStyle;rounded=0;orthogonalLoop=1;jettySize=auto;html=1;exitX=1;exitY=0.5;exitDx=0;exitDy=0;entryX=0;entryY=0.5;entryDx=0;entryDy=0;strokeWidth=2;" parent="1" source="QMlob4MlyVVxAFYZ2pW8-72" target="QMlob4MlyVVxAFYZ2pW8-68" edge="1">
          <mxGeometry relative="1" as="geometry" />
        </mxCell>
        <mxCell id="QMlob4MlyVVxAFYZ2pW8-72" value="몬스터 인식 상태" style="rounded=1;whiteSpace=wrap;html=1;arcSize=0;strokeWidth=2;fontSize=10;fontStyle=1" parent="1" vertex="1">
          <mxGeometry x="840.03" y="740" width="120" height="40" as="geometry" />
        </mxCell>
        <mxCell id="QMlob4MlyVVxAFYZ2pW8-85" style="edgeStyle=orthogonalEdgeStyle;rounded=0;orthogonalLoop=1;jettySize=auto;html=1;exitX=0;exitY=0.5;exitDx=0;exitDy=0;strokeWidth=2;" parent="1" source="QMlob4MlyVVxAFYZ2pW8-73" target="QMlob4MlyVVxAFYZ2pW8-83" edge="1">
          <mxGeometry relative="1" as="geometry" />
        </mxCell>
        <mxCell id="QMlob4MlyVVxAFYZ2pW8-73" value="몬스터 포착 상태" style="rounded=1;whiteSpace=wrap;html=1;arcSize=0;strokeWidth=2;fontSize=10;fontStyle=1" parent="1" vertex="1">
          <mxGeometry x="980.03" y="800" width="120" height="40" as="geometry" />
        </mxCell>
        <mxCell id="QMlob4MlyVVxAFYZ2pW8-86" style="edgeStyle=orthogonalEdgeStyle;rounded=0;orthogonalLoop=1;jettySize=auto;html=1;exitX=0.5;exitY=1;exitDx=0;exitDy=0;strokeWidth=2;" parent="1" source="QMlob4MlyVVxAFYZ2pW8-83" target="QMlob4MlyVVxAFYZ2pW8-84" edge="1">
          <mxGeometry relative="1" as="geometry" />
        </mxCell>
        <mxCell id="QMlob4MlyVVxAFYZ2pW8-83" value="PC 방향으로 공격" style="rounded=1;whiteSpace=wrap;html=1;arcSize=0;strokeWidth=2;fontSize=10;fontStyle=1" parent="1" vertex="1">
          <mxGeometry x="840.03" y="800" width="120" height="40" as="geometry" />
        </mxCell>
        <mxCell id="QMlob4MlyVVxAFYZ2pW8-88" style="edgeStyle=orthogonalEdgeStyle;rounded=0;orthogonalLoop=1;jettySize=auto;html=1;exitX=1;exitY=0.5;exitDx=0;exitDy=0;entryX=0;entryY=0.5;entryDx=0;entryDy=0;strokeWidth=2;" parent="1" source="QMlob4MlyVVxAFYZ2pW8-84" target="QMlob4MlyVVxAFYZ2pW8-87" edge="1">
          <mxGeometry relative="1" as="geometry" />
        </mxCell>
        <mxCell id="QMlob4MlyVVxAFYZ2pW8-89" style="edgeStyle=orthogonalEdgeStyle;rounded=0;orthogonalLoop=1;jettySize=auto;html=1;exitX=0;exitY=0.5;exitDx=0;exitDy=0;entryX=0;entryY=0.5;entryDx=0;entryDy=0;strokeColor=#990000;strokeWidth=2;" parent="1" source="QMlob4MlyVVxAFYZ2pW8-84" target="QMlob4MlyVVxAFYZ2pW8-66" edge="1">
          <mxGeometry relative="1" as="geometry" />
        </mxCell>
        <mxCell id="QMlob4MlyVVxAFYZ2pW8-84" value="PC 타격?" style="rhombus;whiteSpace=wrap;html=1;strokeWidth=2;fontSize=10;fontStyle=1" parent="1" vertex="1">
          <mxGeometry x="840.03" y="860" width="120" height="40" as="geometry" />
        </mxCell>
        <mxCell id="QMlob4MlyVVxAFYZ2pW8-87" value="피습" style="rounded=1;whiteSpace=wrap;html=1;arcSize=50;strokeWidth=2;fontSize=10;fontStyle=1" parent="1" vertex="1">
          <mxGeometry x="980.03" y="860" width="120" height="40" as="geometry" />
        </mxCell>
        <mxCell id="QMlob4MlyVVxAFYZ2pW8-96" style="edgeStyle=orthogonalEdgeStyle;rounded=0;orthogonalLoop=1;jettySize=auto;html=1;exitX=0.5;exitY=1;exitDx=0;exitDy=0;strokeWidth=2;" parent="1" source="QMlob4MlyVVxAFYZ2pW8-93" target="QMlob4MlyVVxAFYZ2pW8-94" edge="1">
          <mxGeometry relative="1" as="geometry" />
        </mxCell>
        <mxCell id="QMlob4MlyVVxAFYZ2pW8-93" value="피습&lt;div&gt;시작&lt;/div&gt;" style="rounded=1;whiteSpace=wrap;html=1;arcSize=50;strokeWidth=2;fontSize=10;fontStyle=1" parent="1" vertex="1">
          <mxGeometry x="1220" y="440" width="120" height="40" as="geometry" />
        </mxCell>
        <mxCell id="QMlob4MlyVVxAFYZ2pW8-97" style="edgeStyle=orthogonalEdgeStyle;rounded=0;orthogonalLoop=1;jettySize=auto;html=1;exitX=0.5;exitY=1;exitDx=0;exitDy=0;strokeWidth=2;" parent="1" source="QMlob4MlyVVxAFYZ2pW8-94" target="QMlob4MlyVVxAFYZ2pW8-95" edge="1">
          <mxGeometry relative="1" as="geometry" />
        </mxCell>
        <mxCell id="QMlob4MlyVVxAFYZ2pW8-94" value="전투에서&amp;nbsp;&lt;div&gt;몬스터 먼저 행동&lt;/div&gt;" style="rounded=1;whiteSpace=wrap;html=1;arcSize=0;strokeWidth=2;fontSize=10;fontStyle=1" parent="1" vertex="1">
          <mxGeometry x="1220" y="500" width="120" height="40" as="geometry" />
        </mxCell>
        <mxCell id="QMlob4MlyVVxAFYZ2pW8-95" value="전투 시작" style="rounded=1;whiteSpace=wrap;html=1;arcSize=50;strokeWidth=2;fontSize=10;fontStyle=1" parent="1" vertex="1">
          <mxGeometry x="1220" y="560" width="120" height="40" as="geometry" />
        </mxCell>
        <mxCell id="QMlob4MlyVVxAFYZ2pW8-103" style="edgeStyle=orthogonalEdgeStyle;rounded=0;orthogonalLoop=1;jettySize=auto;html=1;exitX=0.5;exitY=1;exitDx=0;exitDy=0;strokeWidth=2;" parent="1" source="QMlob4MlyVVxAFYZ2pW8-98" target="QMlob4MlyVVxAFYZ2pW8-99" edge="1">
          <mxGeometry relative="1" as="geometry" />
        </mxCell>
        <mxCell id="QMlob4MlyVVxAFYZ2pW8-98" value="전투 시작&lt;div&gt;시작&lt;/div&gt;" style="rounded=1;whiteSpace=wrap;html=1;arcSize=50;strokeWidth=2;fontSize=10;fontStyle=1" parent="1" vertex="1">
          <mxGeometry x="1220" y="620" width="120" height="40" as="geometry" />
        </mxCell>
        <mxCell id="QMlob4MlyVVxAFYZ2pW8-104" style="edgeStyle=orthogonalEdgeStyle;rounded=0;orthogonalLoop=1;jettySize=auto;html=1;exitX=0.5;exitY=1;exitDx=0;exitDy=0;strokeWidth=2;" parent="1" source="QMlob4MlyVVxAFYZ2pW8-99" target="QMlob4MlyVVxAFYZ2pW8-102" edge="1">
          <mxGeometry relative="1" as="geometry" />
        </mxCell>
        <mxCell id="QMlob4MlyVVxAFYZ2pW8-99" value="&lt;span style=&quot;background-color: initial;&quot;&gt;기초 행동 수치에 따라서 행동 순서 배열&lt;/span&gt;" style="rounded=1;whiteSpace=wrap;html=1;arcSize=0;strokeWidth=2;fontSize=10;fontStyle=1" parent="1" vertex="1">
          <mxGeometry x="1220" y="680" width="120" height="40" as="geometry" />
        </mxCell>
        <mxCell id="QMlob4MlyVVxAFYZ2pW8-102" value="행동 순서 정렬" style="rounded=1;whiteSpace=wrap;html=1;arcSize=50;strokeWidth=2;fontSize=10;fontStyle=1" parent="1" vertex="1">
          <mxGeometry x="1220" y="740" width="120" height="40" as="geometry" />
        </mxCell>
        <mxCell id="QMlob4MlyVVxAFYZ2pW8-204" style="edgeStyle=orthogonalEdgeStyle;rounded=0;orthogonalLoop=1;jettySize=auto;html=1;exitX=0.5;exitY=1;exitDx=0;exitDy=0;strokeWidth=2;" parent="1" source="QMlob4MlyVVxAFYZ2pW8-105" target="QMlob4MlyVVxAFYZ2pW8-203" edge="1">
          <mxGeometry relative="1" as="geometry" />
        </mxCell>
        <mxCell id="QMlob4MlyVVxAFYZ2pW8-105" value="행동 순서 정렬&lt;div&gt;시작&lt;/div&gt;" style="rounded=1;whiteSpace=wrap;html=1;arcSize=50;strokeWidth=2;fontSize=10;fontStyle=1" parent="1" vertex="1">
          <mxGeometry x="1460" y="380" width="120" height="40" as="geometry" />
        </mxCell>
        <mxCell id="QMlob4MlyVVxAFYZ2pW8-111" style="edgeStyle=orthogonalEdgeStyle;rounded=0;orthogonalLoop=1;jettySize=auto;html=1;exitX=1;exitY=0.5;exitDx=0;exitDy=0;strokeColor=#990000;strokeWidth=2;" parent="1" source="QMlob4MlyVVxAFYZ2pW8-106" target="QMlob4MlyVVxAFYZ2pW8-108" edge="1">
          <mxGeometry relative="1" as="geometry" />
        </mxCell>
        <mxCell id="QMlob4MlyVVxAFYZ2pW8-112" style="edgeStyle=orthogonalEdgeStyle;rounded=0;orthogonalLoop=1;jettySize=auto;html=1;exitX=0.5;exitY=1;exitDx=0;exitDy=0;strokeWidth=2;" parent="1" source="QMlob4MlyVVxAFYZ2pW8-106" target="QMlob4MlyVVxAFYZ2pW8-107" edge="1">
          <mxGeometry relative="1" as="geometry" />
        </mxCell>
        <mxCell id="QMlob4MlyVVxAFYZ2pW8-106" value="현재 행동 수치 0&lt;div&gt;캐릭터?&lt;/div&gt;" style="rhombus;whiteSpace=wrap;html=1;strokeWidth=2;fontSize=10;fontStyle=1" parent="1" vertex="1">
          <mxGeometry x="1460" y="500" width="120" height="40" as="geometry" />
        </mxCell>
        <mxCell id="QMlob4MlyVVxAFYZ2pW8-113" style="edgeStyle=orthogonalEdgeStyle;rounded=0;orthogonalLoop=1;jettySize=auto;html=1;exitX=0.5;exitY=1;exitDx=0;exitDy=0;strokeWidth=2;" parent="1" source="QMlob4MlyVVxAFYZ2pW8-107" target="QMlob4MlyVVxAFYZ2pW8-109" edge="1">
          <mxGeometry relative="1" as="geometry" />
        </mxCell>
        <mxCell id="QMlob4MlyVVxAFYZ2pW8-107" value="해당 캐릭터에게 턴 부여" style="rounded=1;whiteSpace=wrap;html=1;arcSize=0;strokeWidth=2;fontSize=10;fontStyle=1" parent="1" vertex="1">
          <mxGeometry x="1460" y="560" width="120" height="40" as="geometry" />
        </mxCell>
        <mxCell id="QMlob4MlyVVxAFYZ2pW8-116" style="edgeStyle=orthogonalEdgeStyle;rounded=0;orthogonalLoop=1;jettySize=auto;html=1;exitX=0.5;exitY=0;exitDx=0;exitDy=0;entryX=0.5;entryY=0;entryDx=0;entryDy=0;strokeWidth=2;" parent="1" source="QMlob4MlyVVxAFYZ2pW8-108" target="QMlob4MlyVVxAFYZ2pW8-106" edge="1">
          <mxGeometry relative="1" as="geometry">
            <Array as="points">
              <mxPoint x="1660" y="490" />
              <mxPoint x="1520" y="490" />
            </Array>
          </mxGeometry>
        </mxCell>
        <mxCell id="QMlob4MlyVVxAFYZ2pW8-108" value="모든 캐릭터&amp;nbsp;&lt;div&gt;현재 행동 수치 감소&lt;/div&gt;" style="rounded=1;whiteSpace=wrap;html=1;arcSize=0;strokeWidth=2;fontSize=10;fontStyle=1" parent="1" vertex="1">
          <mxGeometry x="1600" y="500" width="120" height="40" as="geometry" />
        </mxCell>
        <mxCell id="QMlob4MlyVVxAFYZ2pW8-109" value="캐릭터 행동 분류" style="rounded=1;whiteSpace=wrap;html=1;arcSize=50;strokeWidth=2;fontSize=10;fontStyle=1" parent="1" vertex="1">
          <mxGeometry x="1460" y="620" width="120" height="40" as="geometry" />
        </mxCell>
        <mxCell id="QMlob4MlyVVxAFYZ2pW8-179" style="edgeStyle=orthogonalEdgeStyle;rounded=0;orthogonalLoop=1;jettySize=auto;html=1;exitX=0.5;exitY=1;exitDx=0;exitDy=0;strokeWidth=2;" parent="1" source="QMlob4MlyVVxAFYZ2pW8-156" target="QMlob4MlyVVxAFYZ2pW8-166" edge="1">
          <mxGeometry relative="1" as="geometry" />
        </mxCell>
        <mxCell id="QMlob4MlyVVxAFYZ2pW8-156" value="PC 행동" style="rounded=1;whiteSpace=wrap;html=1;arcSize=50;strokeWidth=2;fontSize=10;fontStyle=1" parent="1" vertex="1">
          <mxGeometry x="1620" y="840" width="120" height="40" as="geometry" />
        </mxCell>
        <mxCell id="QMlob4MlyVVxAFYZ2pW8-157" value="PC 행동" style="rounded=1;whiteSpace=wrap;html=1;arcSize=50;strokeWidth=2;fontSize=10;fontStyle=1" parent="1" vertex="1">
          <mxGeometry x="1460" y="800" width="120" height="40" as="geometry" />
        </mxCell>
        <mxCell id="QMlob4MlyVVxAFYZ2pW8-158" style="edgeStyle=orthogonalEdgeStyle;rounded=0;orthogonalLoop=1;jettySize=auto;html=1;exitX=0.5;exitY=1;exitDx=0;exitDy=0;strokeWidth=2;" parent="1" source="QMlob4MlyVVxAFYZ2pW8-160" target="QMlob4MlyVVxAFYZ2pW8-157" edge="1">
          <mxGeometry relative="1" as="geometry" />
        </mxCell>
        <mxCell id="QMlob4MlyVVxAFYZ2pW8-159" style="edgeStyle=orthogonalEdgeStyle;rounded=0;orthogonalLoop=1;jettySize=auto;html=1;exitX=1;exitY=0.5;exitDx=0;exitDy=0;strokeWidth=2;strokeColor=#990000;" parent="1" source="QMlob4MlyVVxAFYZ2pW8-160" target="QMlob4MlyVVxAFYZ2pW8-161" edge="1">
          <mxGeometry relative="1" as="geometry" />
        </mxCell>
        <mxCell id="QMlob4MlyVVxAFYZ2pW8-160" value="아군?" style="rhombus;whiteSpace=wrap;html=1;strokeWidth=2;fontSize=10;fontStyle=1" parent="1" vertex="1">
          <mxGeometry x="1460" y="740" width="120" height="40" as="geometry" />
        </mxCell>
        <mxCell id="QMlob4MlyVVxAFYZ2pW8-161" value="몬스터 행동" style="rounded=1;whiteSpace=wrap;html=1;arcSize=50;strokeWidth=2;fontSize=10;fontStyle=1" parent="1" vertex="1">
          <mxGeometry x="1600" y="740" width="120" height="40" as="geometry" />
        </mxCell>
        <mxCell id="QMlob4MlyVVxAFYZ2pW8-162" style="edgeStyle=orthogonalEdgeStyle;rounded=0;orthogonalLoop=1;jettySize=auto;html=1;exitX=0.5;exitY=1;exitDx=0;exitDy=0;strokeWidth=2;" parent="1" source="QMlob4MlyVVxAFYZ2pW8-163" target="QMlob4MlyVVxAFYZ2pW8-160" edge="1">
          <mxGeometry relative="1" as="geometry" />
        </mxCell>
        <mxCell id="QMlob4MlyVVxAFYZ2pW8-163" value="캐릭터 행동 분류" style="rounded=1;whiteSpace=wrap;html=1;arcSize=50;strokeWidth=2;fontSize=10;fontStyle=1" parent="1" vertex="1">
          <mxGeometry x="1460" y="680" width="120" height="40" as="geometry" />
        </mxCell>
        <mxCell id="QMlob4MlyVVxAFYZ2pW8-181" style="edgeStyle=orthogonalEdgeStyle;rounded=0;orthogonalLoop=1;jettySize=auto;html=1;exitX=0.5;exitY=1;exitDx=0;exitDy=0;strokeWidth=2;" parent="1" source="QMlob4MlyVVxAFYZ2pW8-166" target="QMlob4MlyVVxAFYZ2pW8-175" edge="1">
          <mxGeometry relative="1" as="geometry" />
        </mxCell>
        <mxCell id="QMlob4MlyVVxAFYZ2pW8-185" style="edgeStyle=orthogonalEdgeStyle;rounded=0;orthogonalLoop=1;jettySize=auto;html=1;exitX=0;exitY=0.5;exitDx=0;exitDy=0;entryX=0;entryY=0.5;entryDx=0;entryDy=0;strokeColor=#990000;strokeWidth=2;" parent="1" source="QMlob4MlyVVxAFYZ2pW8-166" target="QMlob4MlyVVxAFYZ2pW8-171" edge="1">
          <mxGeometry relative="1" as="geometry" />
        </mxCell>
        <mxCell id="QMlob4MlyVVxAFYZ2pW8-166" value="전투 스킬 포인트&lt;div&gt;필요?&lt;/div&gt;" style="rhombus;whiteSpace=wrap;html=1;strokeWidth=2;fontSize=10;fontStyle=1" parent="1" vertex="1">
          <mxGeometry x="1620" y="900" width="120" height="40" as="geometry" />
        </mxCell>
        <mxCell id="QMlob4MlyVVxAFYZ2pW8-191" style="edgeStyle=orthogonalEdgeStyle;rounded=0;orthogonalLoop=1;jettySize=auto;html=1;exitX=1;exitY=0.5;exitDx=0;exitDy=0;strokeColor=#990000;strokeWidth=2;" parent="1" source="QMlob4MlyVVxAFYZ2pW8-169" target="QMlob4MlyVVxAFYZ2pW8-176" edge="1">
          <mxGeometry relative="1" as="geometry" />
        </mxCell>
        <mxCell id="QMlob4MlyVVxAFYZ2pW8-199" style="edgeStyle=orthogonalEdgeStyle;rounded=0;orthogonalLoop=1;jettySize=auto;html=1;exitX=0.5;exitY=1;exitDx=0;exitDy=0;entryX=0.5;entryY=0;entryDx=0;entryDy=0;strokeWidth=2;" parent="1" source="QMlob4MlyVVxAFYZ2pW8-169" target="QMlob4MlyVVxAFYZ2pW8-192" edge="1">
          <mxGeometry relative="1" as="geometry">
            <Array as="points">
              <mxPoint x="1820" y="1190" />
              <mxPoint x="1960" y="1190" />
            </Array>
          </mxGeometry>
        </mxCell>
        <mxCell id="QMlob4MlyVVxAFYZ2pW8-169" value="전투 스킬 포인트&lt;div&gt;최대?&lt;/div&gt;" style="rhombus;whiteSpace=wrap;html=1;strokeWidth=2;fontSize=10;fontStyle=1" parent="1" vertex="1">
          <mxGeometry x="1760" y="1140" width="120" height="40" as="geometry" />
        </mxCell>
        <mxCell id="QMlob4MlyVVxAFYZ2pW8-183" style="edgeStyle=orthogonalEdgeStyle;rounded=0;orthogonalLoop=1;jettySize=auto;html=1;exitX=0.5;exitY=1;exitDx=0;exitDy=0;strokeWidth=2;entryX=0.5;entryY=0;entryDx=0;entryDy=0;" parent="1" source="QMlob4MlyVVxAFYZ2pW8-171" target="QMlob4MlyVVxAFYZ2pW8-430" edge="1">
          <mxGeometry relative="1" as="geometry" />
        </mxCell>
        <mxCell id="QMlob4MlyVVxAFYZ2pW8-184" style="edgeStyle=orthogonalEdgeStyle;rounded=0;orthogonalLoop=1;jettySize=auto;html=1;exitX=1;exitY=0.5;exitDx=0;exitDy=0;strokeColor=#990000;strokeWidth=2;" parent="1" source="QMlob4MlyVVxAFYZ2pW8-171" target="QMlob4MlyVVxAFYZ2pW8-173" edge="1">
          <mxGeometry relative="1" as="geometry" />
        </mxCell>
        <mxCell id="QMlob4MlyVVxAFYZ2pW8-171" value="전투 스킬 사용?" style="rhombus;whiteSpace=wrap;html=1;strokeWidth=2;fontSize=10;fontStyle=1" parent="1" vertex="1">
          <mxGeometry x="1620" y="1020" width="120" height="40" as="geometry" />
        </mxCell>
        <mxCell id="QMlob4MlyVVxAFYZ2pW8-189" style="edgeStyle=orthogonalEdgeStyle;rounded=0;orthogonalLoop=1;jettySize=auto;html=1;exitX=0.5;exitY=1;exitDx=0;exitDy=0;strokeWidth=2;" parent="1" source="QMlob4MlyVVxAFYZ2pW8-173" target="QMlob4MlyVVxAFYZ2pW8-188" edge="1">
          <mxGeometry relative="1" as="geometry" />
        </mxCell>
        <mxCell id="QMlob4MlyVVxAFYZ2pW8-173" value="기본 공격" style="rounded=1;whiteSpace=wrap;html=1;arcSize=0;strokeWidth=2;fontSize=10;fontStyle=1" parent="1" vertex="1">
          <mxGeometry x="1760" y="1020" width="120" height="40" as="geometry" />
        </mxCell>
        <mxCell id="QMlob4MlyVVxAFYZ2pW8-182" style="edgeStyle=orthogonalEdgeStyle;rounded=0;orthogonalLoop=1;jettySize=auto;html=1;exitX=0.5;exitY=1;exitDx=0;exitDy=0;entryX=0.5;entryY=0;entryDx=0;entryDy=0;strokeWidth=2;" parent="1" source="QMlob4MlyVVxAFYZ2pW8-175" target="QMlob4MlyVVxAFYZ2pW8-171" edge="1">
          <mxGeometry relative="1" as="geometry" />
        </mxCell>
        <mxCell id="QMlob4MlyVVxAFYZ2pW8-186" style="edgeStyle=orthogonalEdgeStyle;rounded=0;orthogonalLoop=1;jettySize=auto;html=1;exitX=1;exitY=0.5;exitDx=0;exitDy=0;entryX=0;entryY=0.5;entryDx=0;entryDy=0;strokeColor=#990000;strokeWidth=2;" parent="1" source="QMlob4MlyVVxAFYZ2pW8-175" target="QMlob4MlyVVxAFYZ2pW8-173" edge="1">
          <mxGeometry relative="1" as="geometry">
            <Array as="points">
              <mxPoint x="1750" y="980" />
              <mxPoint x="1750" y="1040" />
            </Array>
          </mxGeometry>
        </mxCell>
        <mxCell id="QMlob4MlyVVxAFYZ2pW8-175" value="전투 스킬 포인트&lt;div&gt;보유?&lt;/div&gt;" style="rhombus;whiteSpace=wrap;html=1;strokeWidth=2;fontSize=10;fontStyle=1" parent="1" vertex="1">
          <mxGeometry x="1620" y="960" width="120" height="40" as="geometry" />
        </mxCell>
        <mxCell id="QMlob4MlyVVxAFYZ2pW8-198" style="edgeStyle=orthogonalEdgeStyle;rounded=0;orthogonalLoop=1;jettySize=auto;html=1;exitX=0.5;exitY=1;exitDx=0;exitDy=0;strokeWidth=2;" parent="1" source="QMlob4MlyVVxAFYZ2pW8-176" target="QMlob4MlyVVxAFYZ2pW8-192" edge="1">
          <mxGeometry relative="1" as="geometry" />
        </mxCell>
        <mxCell id="QMlob4MlyVVxAFYZ2pW8-176" value="전투 스킬 포인트 1 회복" style="rounded=1;whiteSpace=wrap;html=1;arcSize=0;strokeWidth=2;fontSize=10;fontStyle=1" parent="1" vertex="1">
          <mxGeometry x="1900" y="1140" width="120" height="40" as="geometry" />
        </mxCell>
        <mxCell id="QMlob4MlyVVxAFYZ2pW8-200" style="edgeStyle=orthogonalEdgeStyle;rounded=0;orthogonalLoop=1;jettySize=auto;html=1;exitX=0.5;exitY=1;exitDx=0;exitDy=0;strokeWidth=2;" parent="1" source="QMlob4MlyVVxAFYZ2pW8-178" target="QMlob4MlyVVxAFYZ2pW8-192" edge="1">
          <mxGeometry relative="1" as="geometry">
            <Array as="points">
              <mxPoint x="1680" y="1190" />
              <mxPoint x="1960" y="1190" />
            </Array>
          </mxGeometry>
        </mxCell>
        <mxCell id="QMlob4MlyVVxAFYZ2pW8-178" value="스킬 사용" style="rounded=1;whiteSpace=wrap;html=1;arcSize=0;strokeWidth=2;fontSize=10;fontStyle=1" parent="1" vertex="1">
          <mxGeometry x="1620" y="1140" width="120" height="40" as="geometry" />
        </mxCell>
        <mxCell id="QMlob4MlyVVxAFYZ2pW8-190" style="edgeStyle=orthogonalEdgeStyle;rounded=0;orthogonalLoop=1;jettySize=auto;html=1;exitX=0.5;exitY=1;exitDx=0;exitDy=0;entryX=0.5;entryY=0;entryDx=0;entryDy=0;strokeWidth=2;" parent="1" source="QMlob4MlyVVxAFYZ2pW8-188" target="QMlob4MlyVVxAFYZ2pW8-169" edge="1">
          <mxGeometry relative="1" as="geometry" />
        </mxCell>
        <mxCell id="QMlob4MlyVVxAFYZ2pW8-197" style="edgeStyle=orthogonalEdgeStyle;rounded=0;orthogonalLoop=1;jettySize=auto;html=1;exitX=1;exitY=0.5;exitDx=0;exitDy=0;entryX=1;entryY=0.5;entryDx=0;entryDy=0;strokeColor=#990000;strokeWidth=2;" parent="1" source="QMlob4MlyVVxAFYZ2pW8-188" target="QMlob4MlyVVxAFYZ2pW8-192" edge="1">
          <mxGeometry relative="1" as="geometry" />
        </mxCell>
        <mxCell id="QMlob4MlyVVxAFYZ2pW8-188" value="전투 스킬 포인트&lt;div&gt;회복 가능?&lt;/div&gt;" style="rhombus;whiteSpace=wrap;html=1;strokeWidth=2;fontSize=10;fontStyle=1" parent="1" vertex="1">
          <mxGeometry x="1760" y="1080" width="120" height="40" as="geometry" />
        </mxCell>
        <mxCell id="QMlob4MlyVVxAFYZ2pW8-202" style="edgeStyle=orthogonalEdgeStyle;rounded=0;orthogonalLoop=1;jettySize=auto;html=1;exitX=0.5;exitY=1;exitDx=0;exitDy=0;strokeWidth=2;" parent="1" source="QMlob4MlyVVxAFYZ2pW8-192" target="QMlob4MlyVVxAFYZ2pW8-201" edge="1">
          <mxGeometry relative="1" as="geometry" />
        </mxCell>
        <mxCell id="QMlob4MlyVVxAFYZ2pW8-192" value="현재 행동 수치&lt;div&gt;기본 행동 수치 만큼&lt;/div&gt;&lt;div&gt;상승&lt;/div&gt;" style="rounded=1;whiteSpace=wrap;html=1;arcSize=0;strokeWidth=2;fontSize=10;fontStyle=1" parent="1" vertex="1">
          <mxGeometry x="1900" y="1200" width="120" height="40" as="geometry" />
        </mxCell>
        <mxCell id="QMlob4MlyVVxAFYZ2pW8-201" value="행동 순서 정렬" style="rounded=1;whiteSpace=wrap;html=1;arcSize=50;strokeWidth=2;fontSize=10;fontStyle=1" parent="1" vertex="1">
          <mxGeometry x="1900" y="1260" width="120" height="40" as="geometry" />
        </mxCell>
        <mxCell id="QMlob4MlyVVxAFYZ2pW8-205" style="edgeStyle=orthogonalEdgeStyle;rounded=0;orthogonalLoop=1;jettySize=auto;html=1;exitX=0.5;exitY=1;exitDx=0;exitDy=0;strokeWidth=2;" parent="1" source="QMlob4MlyVVxAFYZ2pW8-203" target="QMlob4MlyVVxAFYZ2pW8-106" edge="1">
          <mxGeometry relative="1" as="geometry" />
        </mxCell>
        <mxCell id="QMlob4MlyVVxAFYZ2pW8-207" style="edgeStyle=orthogonalEdgeStyle;rounded=0;orthogonalLoop=1;jettySize=auto;html=1;exitX=1;exitY=0.5;exitDx=0;exitDy=0;entryX=0;entryY=0.5;entryDx=0;entryDy=0;strokeWidth=2;" parent="1" source="QMlob4MlyVVxAFYZ2pW8-203" target="QMlob4MlyVVxAFYZ2pW8-206" edge="1">
          <mxGeometry relative="1" as="geometry" />
        </mxCell>
        <mxCell id="QMlob4MlyVVxAFYZ2pW8-203" value="전투 종료&lt;div&gt;조건 달성?&lt;/div&gt;" style="rhombus;whiteSpace=wrap;html=1;strokeWidth=2;fontSize=10;fontStyle=1" parent="1" vertex="1">
          <mxGeometry x="1460" y="440" width="120" height="40" as="geometry" />
        </mxCell>
        <mxCell id="QMlob4MlyVVxAFYZ2pW8-206" value="전투 종료" style="rounded=1;whiteSpace=wrap;html=1;arcSize=50;strokeWidth=2;fontSize=10;fontStyle=1" parent="1" vertex="1">
          <mxGeometry x="1600" y="440" width="120" height="40" as="geometry" />
        </mxCell>
        <mxCell id="QMlob4MlyVVxAFYZ2pW8-215" style="edgeStyle=orthogonalEdgeStyle;rounded=0;orthogonalLoop=1;jettySize=auto;html=1;exitX=0.5;exitY=1;exitDx=0;exitDy=0;strokeWidth=2;" parent="1" source="QMlob4MlyVVxAFYZ2pW8-208" target="QMlob4MlyVVxAFYZ2pW8-209" edge="1">
          <mxGeometry relative="1" as="geometry" />
        </mxCell>
        <mxCell id="QMlob4MlyVVxAFYZ2pW8-208" value="전투 종료&lt;div&gt;시작&lt;/div&gt;" style="rounded=1;whiteSpace=wrap;html=1;arcSize=50;strokeWidth=2;fontSize=10;fontStyle=1" parent="1" vertex="1">
          <mxGeometry x="1820" y="380" width="120" height="40" as="geometry" />
        </mxCell>
        <mxCell id="QMlob4MlyVVxAFYZ2pW8-216" style="edgeStyle=orthogonalEdgeStyle;rounded=0;orthogonalLoop=1;jettySize=auto;html=1;exitX=0.5;exitY=1;exitDx=0;exitDy=0;strokeWidth=2;" parent="1" source="QMlob4MlyVVxAFYZ2pW8-209" target="QMlob4MlyVVxAFYZ2pW8-212" edge="1">
          <mxGeometry relative="1" as="geometry" />
        </mxCell>
        <mxCell id="QMlob4MlyVVxAFYZ2pW8-217" style="edgeStyle=orthogonalEdgeStyle;rounded=0;orthogonalLoop=1;jettySize=auto;html=1;exitX=1;exitY=0.5;exitDx=0;exitDy=0;strokeColor=#990000;strokeWidth=2;" parent="1" source="QMlob4MlyVVxAFYZ2pW8-209" target="QMlob4MlyVVxAFYZ2pW8-211" edge="1">
          <mxGeometry relative="1" as="geometry" />
        </mxCell>
        <mxCell id="QMlob4MlyVVxAFYZ2pW8-209" value="목표 달성?" style="rhombus;whiteSpace=wrap;html=1;strokeWidth=2;fontSize=10;fontStyle=1" parent="1" vertex="1">
          <mxGeometry x="1820" y="440" width="120" height="40" as="geometry" />
        </mxCell>
        <mxCell id="QMlob4MlyVVxAFYZ2pW8-219" style="edgeStyle=orthogonalEdgeStyle;rounded=0;orthogonalLoop=1;jettySize=auto;html=1;entryX=1;entryY=0.5;entryDx=0;entryDy=0;exitX=0.5;exitY=1;exitDx=0;exitDy=0;exitPerimeter=0;strokeWidth=2;" parent="1" source="QMlob4MlyVVxAFYZ2pW8-211" target="QMlob4MlyVVxAFYZ2pW8-214" edge="1">
          <mxGeometry relative="1" as="geometry" />
        </mxCell>
        <mxCell id="QMlob4MlyVVxAFYZ2pW8-211" value="&lt;span style=&quot;font-size: 10px;&quot;&gt;실패 화면 출력&lt;/span&gt;" style="shape=document;whiteSpace=wrap;html=1;boundedLbl=1;fontStyle=1;strokeWidth=2;" parent="1" vertex="1">
          <mxGeometry x="1960" y="440" width="120" height="40" as="geometry" />
        </mxCell>
        <mxCell id="QMlob4MlyVVxAFYZ2pW8-220" style="edgeStyle=orthogonalEdgeStyle;rounded=0;orthogonalLoop=1;jettySize=auto;html=1;strokeWidth=2;" parent="1" source="QMlob4MlyVVxAFYZ2pW8-212" target="QMlob4MlyVVxAFYZ2pW8-214" edge="1">
          <mxGeometry relative="1" as="geometry" />
        </mxCell>
        <mxCell id="QMlob4MlyVVxAFYZ2pW8-212" value="&lt;span style=&quot;font-size: 10px;&quot;&gt;성공 화면 출력&lt;/span&gt;" style="shape=document;whiteSpace=wrap;html=1;boundedLbl=1;fontStyle=1;strokeWidth=2;" parent="1" vertex="1">
          <mxGeometry x="1820" y="500" width="120" height="40" as="geometry" />
        </mxCell>
        <mxCell id="QMlob4MlyVVxAFYZ2pW8-214" value="종료" style="rounded=1;whiteSpace=wrap;html=1;arcSize=50;strokeWidth=2;fontSize=10;fontStyle=1" parent="1" vertex="1">
          <mxGeometry x="1820" y="560" width="120" height="40" as="geometry" />
        </mxCell>
        <mxCell id="QMlob4MlyVVxAFYZ2pW8-226" style="edgeStyle=orthogonalEdgeStyle;rounded=0;orthogonalLoop=1;jettySize=auto;html=1;exitX=0.5;exitY=1;exitDx=0;exitDy=0;entryX=0.5;entryY=0;entryDx=0;entryDy=0;strokeWidth=2;" parent="1" source="QMlob4MlyVVxAFYZ2pW8-221" target="QMlob4MlyVVxAFYZ2pW8-222" edge="1">
          <mxGeometry relative="1" as="geometry" />
        </mxCell>
        <mxCell id="QMlob4MlyVVxAFYZ2pW8-221" value="&lt;div&gt;던전 입장&lt;/div&gt;&lt;div&gt;시작&lt;/div&gt;" style="rounded=1;whiteSpace=wrap;html=1;arcSize=50;strokeWidth=2;fontSize=10;fontStyle=1" parent="1" vertex="1">
          <mxGeometry x="480" y="640" width="120" height="40" as="geometry" />
        </mxCell>
        <mxCell id="QMlob4MlyVVxAFYZ2pW8-227" style="edgeStyle=orthogonalEdgeStyle;rounded=0;orthogonalLoop=1;jettySize=auto;html=1;exitX=1;exitY=0.5;exitDx=0;exitDy=0;strokeColor=#990000;strokeWidth=2;entryX=0;entryY=0.5;entryDx=0;entryDy=0;" parent="1" source="QMlob4MlyVVxAFYZ2pW8-222" target="QMlob4MlyVVxAFYZ2pW8-224" edge="1">
          <mxGeometry relative="1" as="geometry">
            <Array as="points">
              <mxPoint x="610" y="720" />
              <mxPoint x="610" y="780" />
            </Array>
          </mxGeometry>
        </mxCell>
        <mxCell id="QMlob4MlyVVxAFYZ2pW8-234" style="edgeStyle=orthogonalEdgeStyle;rounded=0;orthogonalLoop=1;jettySize=auto;html=1;exitX=0.5;exitY=1;exitDx=0;exitDy=0;entryX=0.5;entryY=0;entryDx=0;entryDy=0;strokeWidth=2;" parent="1" source="QMlob4MlyVVxAFYZ2pW8-222" target="QMlob4MlyVVxAFYZ2pW8-232" edge="1">
          <mxGeometry relative="1" as="geometry" />
        </mxCell>
        <mxCell id="QMlob4MlyVVxAFYZ2pW8-222" value="던전 입장 조건?" style="rhombus;whiteSpace=wrap;html=1;strokeWidth=2;fontSize=10;fontStyle=1" parent="1" vertex="1">
          <mxGeometry x="480" y="700" width="120" height="40" as="geometry" />
        </mxCell>
        <mxCell id="QMlob4MlyVVxAFYZ2pW8-224" value="종료" style="rounded=1;whiteSpace=wrap;html=1;arcSize=50;strokeWidth=2;fontSize=10;fontStyle=1" parent="1" vertex="1">
          <mxGeometry x="620" y="760" width="40" height="40" as="geometry" />
        </mxCell>
        <mxCell id="QMlob4MlyVVxAFYZ2pW8-231" value="행동 순서 정렬" style="rounded=1;whiteSpace=wrap;html=1;arcSize=50;strokeWidth=2;fontSize=10;fontStyle=1" parent="1" vertex="1">
          <mxGeometry x="480" y="820" width="120" height="40" as="geometry" />
        </mxCell>
        <mxCell id="QMlob4MlyVVxAFYZ2pW8-233" style="edgeStyle=orthogonalEdgeStyle;rounded=0;orthogonalLoop=1;jettySize=auto;html=1;exitX=1;exitY=0.5;exitDx=0;exitDy=0;strokeColor=#990000;strokeWidth=2;" parent="1" source="QMlob4MlyVVxAFYZ2pW8-232" target="QMlob4MlyVVxAFYZ2pW8-224" edge="1">
          <mxGeometry relative="1" as="geometry" />
        </mxCell>
        <mxCell id="QMlob4MlyVVxAFYZ2pW8-235" style="edgeStyle=orthogonalEdgeStyle;rounded=0;orthogonalLoop=1;jettySize=auto;html=1;exitX=0.5;exitY=1;exitDx=0;exitDy=0;entryX=0.5;entryY=0;entryDx=0;entryDy=0;strokeWidth=2;" parent="1" source="QMlob4MlyVVxAFYZ2pW8-232" target="QMlob4MlyVVxAFYZ2pW8-231" edge="1">
          <mxGeometry relative="1" as="geometry" />
        </mxCell>
        <mxCell id="QMlob4MlyVVxAFYZ2pW8-232" value="입장?" style="rhombus;whiteSpace=wrap;html=1;strokeWidth=2;fontSize=10;fontStyle=1" parent="1" vertex="1">
          <mxGeometry x="480" y="760" width="120" height="40" as="geometry" />
        </mxCell>
        <mxCell id="QMlob4MlyVVxAFYZ2pW8-241" style="edgeStyle=orthogonalEdgeStyle;rounded=0;orthogonalLoop=1;jettySize=auto;html=1;exitX=0.5;exitY=1;exitDx=0;exitDy=0;strokeWidth=2;" parent="1" source="QMlob4MlyVVxAFYZ2pW8-236" target="QMlob4MlyVVxAFYZ2pW8-237" edge="1">
          <mxGeometry relative="1" as="geometry" />
        </mxCell>
        <mxCell id="QMlob4MlyVVxAFYZ2pW8-236" value="강인도 피해&lt;div&gt;시작&lt;/div&gt;" style="rounded=1;whiteSpace=wrap;html=1;arcSize=50;strokeWidth=2;fontSize=10;fontStyle=1" parent="1" vertex="1">
          <mxGeometry x="720" y="1040" width="120" height="40" as="geometry" />
        </mxCell>
        <mxCell id="QMlob4MlyVVxAFYZ2pW8-246" style="edgeStyle=orthogonalEdgeStyle;rounded=0;orthogonalLoop=1;jettySize=auto;html=1;exitX=0.5;exitY=1;exitDx=0;exitDy=0;entryX=0.5;entryY=0;entryDx=0;entryDy=0;strokeWidth=2;" parent="1" source="QMlob4MlyVVxAFYZ2pW8-237" target="QMlob4MlyVVxAFYZ2pW8-403" edge="1">
          <mxGeometry relative="1" as="geometry" />
        </mxCell>
        <mxCell id="QMlob4MlyVVxAFYZ2pW8-406" style="edgeStyle=orthogonalEdgeStyle;rounded=0;orthogonalLoop=1;jettySize=auto;html=1;exitX=1;exitY=0.5;exitDx=0;exitDy=0;entryX=0;entryY=0.5;entryDx=0;entryDy=0;strokeColor=#990000;strokeWidth=2;" parent="1" source="QMlob4MlyVVxAFYZ2pW8-237" target="QMlob4MlyVVxAFYZ2pW8-240" edge="1">
          <mxGeometry relative="1" as="geometry">
            <Array as="points">
              <mxPoint x="850" y="1120" />
              <mxPoint x="850" y="1240" />
            </Array>
          </mxGeometry>
        </mxCell>
        <mxCell id="QMlob4MlyVVxAFYZ2pW8-237" value="약점 속성 피해 받음?" style="rhombus;whiteSpace=wrap;html=1;strokeWidth=2;fontSize=10;fontStyle=1" parent="1" vertex="1">
          <mxGeometry x="720" y="1100" width="120" height="40" as="geometry" />
        </mxCell>
        <mxCell id="QMlob4MlyVVxAFYZ2pW8-240" value="종료" style="rounded=1;whiteSpace=wrap;html=1;arcSize=50;strokeWidth=2;fontSize=10;fontStyle=1" parent="1" vertex="1">
          <mxGeometry x="860" y="1220" width="40" height="40" as="geometry" />
        </mxCell>
        <mxCell id="QMlob4MlyVVxAFYZ2pW8-248" style="edgeStyle=orthogonalEdgeStyle;rounded=0;orthogonalLoop=1;jettySize=auto;html=1;exitX=0.5;exitY=1;exitDx=0;exitDy=0;strokeWidth=2;" parent="1" source="QMlob4MlyVVxAFYZ2pW8-244" target="QMlob4MlyVVxAFYZ2pW8-247" edge="1">
          <mxGeometry relative="1" as="geometry" />
        </mxCell>
        <mxCell id="QMlob4MlyVVxAFYZ2pW8-405" style="edgeStyle=orthogonalEdgeStyle;rounded=0;orthogonalLoop=1;jettySize=auto;html=1;exitX=1;exitY=0.5;exitDx=0;exitDy=0;entryX=0;entryY=0.5;entryDx=0;entryDy=0;strokeColor=#990000;strokeWidth=2;" parent="1" source="QMlob4MlyVVxAFYZ2pW8-244" target="QMlob4MlyVVxAFYZ2pW8-240" edge="1">
          <mxGeometry relative="1" as="geometry" />
        </mxCell>
        <mxCell id="QMlob4MlyVVxAFYZ2pW8-244" value="강인도 0?" style="rhombus;whiteSpace=wrap;html=1;strokeWidth=2;fontSize=10;fontStyle=1" parent="1" vertex="1">
          <mxGeometry x="720.03" y="1220" width="120" height="40" as="geometry" />
        </mxCell>
        <mxCell id="QMlob4MlyVVxAFYZ2pW8-247" value="격파 효과" style="rounded=1;whiteSpace=wrap;html=1;arcSize=50;strokeWidth=2;fontSize=10;fontStyle=1" parent="1" vertex="1">
          <mxGeometry x="720.03" y="1280" width="120" height="40" as="geometry" />
        </mxCell>
        <mxCell id="QMlob4MlyVVxAFYZ2pW8-262" style="edgeStyle=orthogonalEdgeStyle;rounded=0;orthogonalLoop=1;jettySize=auto;html=1;exitX=0.5;exitY=1;exitDx=0;exitDy=0;entryX=0.5;entryY=0;entryDx=0;entryDy=0;strokeWidth=2;" parent="1" source="QMlob4MlyVVxAFYZ2pW8-256" target="QMlob4MlyVVxAFYZ2pW8-257" edge="1">
          <mxGeometry relative="1" as="geometry" />
        </mxCell>
        <mxCell id="QMlob4MlyVVxAFYZ2pW8-256" value="격파 효과&lt;div&gt;시작&lt;/div&gt;" style="rounded=1;whiteSpace=wrap;html=1;arcSize=50;strokeWidth=2;fontSize=10;fontStyle=1" parent="1" vertex="1">
          <mxGeometry x="1121" y="1040" width="120" height="40" as="geometry" />
        </mxCell>
        <mxCell id="QMlob4MlyVVxAFYZ2pW8-263" style="edgeStyle=orthogonalEdgeStyle;rounded=0;orthogonalLoop=1;jettySize=auto;html=1;exitX=0.5;exitY=1;exitDx=0;exitDy=0;strokeWidth=2;" parent="1" source="QMlob4MlyVVxAFYZ2pW8-257" target="QMlob4MlyVVxAFYZ2pW8-258" edge="1">
          <mxGeometry relative="1" as="geometry" />
        </mxCell>
        <mxCell id="QMlob4MlyVVxAFYZ2pW8-257" value="현재 행동 수치 상승" style="rounded=1;whiteSpace=wrap;html=1;arcSize=0;strokeWidth=2;fontSize=10;fontStyle=1" parent="1" vertex="1">
          <mxGeometry x="1121" y="1100" width="120" height="40" as="geometry" />
        </mxCell>
        <mxCell id="QMlob4MlyVVxAFYZ2pW8-264" style="edgeStyle=orthogonalEdgeStyle;rounded=0;orthogonalLoop=1;jettySize=auto;html=1;exitX=0.5;exitY=1;exitDx=0;exitDy=0;strokeWidth=2;" parent="1" source="QMlob4MlyVVxAFYZ2pW8-258" target="QMlob4MlyVVxAFYZ2pW8-259" edge="1">
          <mxGeometry relative="1" as="geometry" />
        </mxCell>
        <mxCell id="QMlob4MlyVVxAFYZ2pW8-258" value="격파 피해" style="rounded=1;whiteSpace=wrap;html=1;arcSize=0;strokeWidth=2;fontSize=10;fontStyle=1" parent="1" vertex="1">
          <mxGeometry x="1121" y="1160" width="120" height="40" as="geometry" />
        </mxCell>
        <mxCell id="QMlob4MlyVVxAFYZ2pW8-265" style="edgeStyle=orthogonalEdgeStyle;rounded=0;orthogonalLoop=1;jettySize=auto;html=1;exitX=0.5;exitY=1;exitDx=0;exitDy=0;strokeWidth=2;" parent="1" source="QMlob4MlyVVxAFYZ2pW8-259" target="QMlob4MlyVVxAFYZ2pW8-260" edge="1">
          <mxGeometry relative="1" as="geometry" />
        </mxCell>
        <mxCell id="QMlob4MlyVVxAFYZ2pW8-259" value="속성별 디버프" style="rounded=1;whiteSpace=wrap;html=1;arcSize=0;strokeWidth=2;fontSize=10;fontStyle=1" parent="1" vertex="1">
          <mxGeometry x="1121" y="1220" width="120" height="40" as="geometry" />
        </mxCell>
        <mxCell id="QMlob4MlyVVxAFYZ2pW8-266" style="edgeStyle=orthogonalEdgeStyle;rounded=0;orthogonalLoop=1;jettySize=auto;html=1;exitX=0.5;exitY=1;exitDx=0;exitDy=0;strokeWidth=2;" parent="1" source="QMlob4MlyVVxAFYZ2pW8-260" target="QMlob4MlyVVxAFYZ2pW8-261" edge="1">
          <mxGeometry relative="1" as="geometry" />
        </mxCell>
        <mxCell id="QMlob4MlyVVxAFYZ2pW8-260" value="몬스터 약점 격파 상태" style="rounded=1;whiteSpace=wrap;html=1;arcSize=0;strokeWidth=2;fontSize=10;fontStyle=1" parent="1" vertex="1">
          <mxGeometry x="1121" y="1280" width="120" height="40" as="geometry" />
        </mxCell>
        <mxCell id="QMlob4MlyVVxAFYZ2pW8-261" value="행동 순서 정렬" style="rounded=1;whiteSpace=wrap;html=1;arcSize=50;strokeWidth=2;fontSize=10;fontStyle=1" parent="1" vertex="1">
          <mxGeometry x="1121" y="1340" width="120" height="40" as="geometry" />
        </mxCell>
        <mxCell id="QMlob4MlyVVxAFYZ2pW8-285" style="edgeStyle=orthogonalEdgeStyle;rounded=0;orthogonalLoop=1;jettySize=auto;html=1;exitX=0.5;exitY=1;exitDx=0;exitDy=0;entryX=0.5;entryY=0;entryDx=0;entryDy=0;strokeWidth=2;" parent="1" source="QMlob4MlyVVxAFYZ2pW8-270" target="QMlob4MlyVVxAFYZ2pW8-277" edge="1">
          <mxGeometry relative="1" as="geometry">
            <Array as="points">
              <mxPoint x="1480" y="1150" />
              <mxPoint x="1340" y="1150" />
            </Array>
          </mxGeometry>
        </mxCell>
        <mxCell id="QMlob4MlyVVxAFYZ2pW8-270" value="몬스터 약점 격파 상태&lt;div&gt;회복&lt;/div&gt;" style="rounded=1;whiteSpace=wrap;html=1;arcSize=0;strokeWidth=2;fontSize=10;fontStyle=1" parent="1" vertex="1">
          <mxGeometry x="1420" y="1100" width="120" height="40" as="geometry" />
        </mxCell>
        <mxCell id="QMlob4MlyVVxAFYZ2pW8-279" style="edgeStyle=orthogonalEdgeStyle;rounded=0;orthogonalLoop=1;jettySize=auto;html=1;exitX=0.5;exitY=1;exitDx=0;exitDy=0;entryX=0.5;entryY=0;entryDx=0;entryDy=0;strokeWidth=2;" parent="1" source="QMlob4MlyVVxAFYZ2pW8-276" target="QMlob4MlyVVxAFYZ2pW8-281" edge="1">
          <mxGeometry relative="1" as="geometry" />
        </mxCell>
        <mxCell id="QMlob4MlyVVxAFYZ2pW8-276" value="몬스터 행동&lt;div&gt;시작&lt;/div&gt;" style="rounded=1;whiteSpace=wrap;html=1;arcSize=50;strokeWidth=2;fontSize=10;fontStyle=1" parent="1" vertex="1">
          <mxGeometry x="1280" y="1040" width="120" height="40" as="geometry" />
        </mxCell>
        <mxCell id="QMlob4MlyVVxAFYZ2pW8-280" style="edgeStyle=orthogonalEdgeStyle;rounded=0;orthogonalLoop=1;jettySize=auto;html=1;exitX=0.5;exitY=1;exitDx=0;exitDy=0;strokeWidth=2;" parent="1" source="QMlob4MlyVVxAFYZ2pW8-277" target="QMlob4MlyVVxAFYZ2pW8-286" edge="1">
          <mxGeometry relative="1" as="geometry" />
        </mxCell>
        <mxCell id="QMlob4MlyVVxAFYZ2pW8-277" value="몬스터 행동" style="rounded=1;whiteSpace=wrap;html=1;arcSize=0;strokeWidth=2;fontSize=10;fontStyle=1" parent="1" vertex="1">
          <mxGeometry x="1280" y="1160" width="120" height="40" as="geometry" />
        </mxCell>
        <mxCell id="QMlob4MlyVVxAFYZ2pW8-278" value="행동 순서 정렬" style="rounded=1;whiteSpace=wrap;html=1;arcSize=50;strokeWidth=2;fontSize=10;fontStyle=1" parent="1" vertex="1">
          <mxGeometry x="1280" y="1280" width="120" height="40" as="geometry" />
        </mxCell>
        <mxCell id="QMlob4MlyVVxAFYZ2pW8-283" style="edgeStyle=orthogonalEdgeStyle;rounded=0;orthogonalLoop=1;jettySize=auto;html=1;exitX=1;exitY=0.5;exitDx=0;exitDy=0;strokeColor=#990000;strokeWidth=2;" parent="1" source="QMlob4MlyVVxAFYZ2pW8-281" target="QMlob4MlyVVxAFYZ2pW8-270" edge="1">
          <mxGeometry relative="1" as="geometry" />
        </mxCell>
        <mxCell id="QMlob4MlyVVxAFYZ2pW8-284" style="edgeStyle=orthogonalEdgeStyle;rounded=0;orthogonalLoop=1;jettySize=auto;html=1;exitX=0.5;exitY=1;exitDx=0;exitDy=0;strokeWidth=2;" parent="1" source="QMlob4MlyVVxAFYZ2pW8-281" target="QMlob4MlyVVxAFYZ2pW8-277" edge="1">
          <mxGeometry relative="1" as="geometry" />
        </mxCell>
        <mxCell id="QMlob4MlyVVxAFYZ2pW8-281" value="약점 상태?" style="rhombus;whiteSpace=wrap;html=1;strokeWidth=2;fontSize=10;fontStyle=1" parent="1" vertex="1">
          <mxGeometry x="1280" y="1100" width="120" height="40" as="geometry" />
        </mxCell>
        <mxCell id="QMlob4MlyVVxAFYZ2pW8-287" style="edgeStyle=orthogonalEdgeStyle;rounded=0;orthogonalLoop=1;jettySize=auto;html=1;exitX=0.5;exitY=1;exitDx=0;exitDy=0;entryX=0.5;entryY=0;entryDx=0;entryDy=0;strokeWidth=2;" parent="1" source="QMlob4MlyVVxAFYZ2pW8-286" target="QMlob4MlyVVxAFYZ2pW8-278" edge="1">
          <mxGeometry relative="1" as="geometry" />
        </mxCell>
        <mxCell id="QMlob4MlyVVxAFYZ2pW8-286" value="현재 행동 수치&lt;div&gt;기본 행동 수치 만큼&lt;/div&gt;&lt;div&gt;상승&lt;/div&gt;" style="rounded=1;whiteSpace=wrap;html=1;arcSize=0;strokeWidth=2;fontSize=10;fontStyle=1" parent="1" vertex="1">
          <mxGeometry x="1280" y="1220" width="120" height="40" as="geometry" />
        </mxCell>
        <mxCell id="QMlob4MlyVVxAFYZ2pW8-292" style="edgeStyle=orthogonalEdgeStyle;rounded=0;orthogonalLoop=1;jettySize=auto;html=1;exitX=0.5;exitY=1;exitDx=0;exitDy=0;strokeWidth=2;" parent="1" source="QMlob4MlyVVxAFYZ2pW8-288" target="QMlob4MlyVVxAFYZ2pW8-291" edge="1">
          <mxGeometry relative="1" as="geometry" />
        </mxCell>
        <mxCell id="QMlob4MlyVVxAFYZ2pW8-288" value="필드 탐색&lt;div&gt;시작&lt;/div&gt;" style="rounded=1;whiteSpace=wrap;html=1;arcSize=50;strokeWidth=2;fontSize=10;fontStyle=1" parent="1" vertex="1">
          <mxGeometry x="-520" y="120" width="120" height="40" as="geometry" />
        </mxCell>
        <mxCell id="QMlob4MlyVVxAFYZ2pW8-294" style="edgeStyle=orthogonalEdgeStyle;rounded=0;orthogonalLoop=1;jettySize=auto;html=1;exitX=0.5;exitY=1;exitDx=0;exitDy=0;strokeWidth=2;" parent="1" source="QMlob4MlyVVxAFYZ2pW8-291" target="QMlob4MlyVVxAFYZ2pW8-293" edge="1">
          <mxGeometry relative="1" as="geometry" />
        </mxCell>
        <mxCell id="QMlob4MlyVVxAFYZ2pW8-336" style="edgeStyle=orthogonalEdgeStyle;rounded=0;orthogonalLoop=1;jettySize=auto;html=1;exitX=1;exitY=0.5;exitDx=0;exitDy=0;entryX=1;entryY=0.5;entryDx=0;entryDy=0;strokeColor=#990000;strokeWidth=2;" parent="1" source="QMlob4MlyVVxAFYZ2pW8-291" target="QMlob4MlyVVxAFYZ2pW8-302" edge="1">
          <mxGeometry relative="1" as="geometry" />
        </mxCell>
        <mxCell id="QMlob4MlyVVxAFYZ2pW8-291" value="시야에 몬스터?" style="rhombus;whiteSpace=wrap;html=1;strokeWidth=2;fontSize=10;fontStyle=1" parent="1" vertex="1">
          <mxGeometry x="-520" y="180" width="120" height="40" as="geometry" />
        </mxCell>
        <mxCell id="QMlob4MlyVVxAFYZ2pW8-310" style="edgeStyle=orthogonalEdgeStyle;rounded=0;orthogonalLoop=1;jettySize=auto;html=1;exitX=0.5;exitY=1;exitDx=0;exitDy=0;strokeWidth=2;" parent="1" source="QMlob4MlyVVxAFYZ2pW8-293" target="QMlob4MlyVVxAFYZ2pW8-296" edge="1">
          <mxGeometry relative="1" as="geometry" />
        </mxCell>
        <mxCell id="QMlob4MlyVVxAFYZ2pW8-335" style="edgeStyle=orthogonalEdgeStyle;rounded=0;orthogonalLoop=1;jettySize=auto;html=1;exitX=1;exitY=0.5;exitDx=0;exitDy=0;entryX=1;entryY=0.5;entryDx=0;entryDy=0;strokeColor=#990000;strokeWidth=2;" parent="1" source="QMlob4MlyVVxAFYZ2pW8-293" target="QMlob4MlyVVxAFYZ2pW8-302" edge="1">
          <mxGeometry relative="1" as="geometry" />
        </mxCell>
        <mxCell id="QMlob4MlyVVxAFYZ2pW8-293" value="인식 범위?" style="rhombus;whiteSpace=wrap;html=1;strokeWidth=2;fontSize=10;fontStyle=1" parent="1" vertex="1">
          <mxGeometry x="-520" y="240" width="120" height="40" as="geometry" />
        </mxCell>
        <mxCell id="QMlob4MlyVVxAFYZ2pW8-330" style="edgeStyle=orthogonalEdgeStyle;rounded=0;orthogonalLoop=1;jettySize=auto;html=1;entryX=0.5;entryY=0;entryDx=0;entryDy=0;strokeWidth=2;" parent="1" source="QMlob4MlyVVxAFYZ2pW8-296" target="QMlob4MlyVVxAFYZ2pW8-306" edge="1">
          <mxGeometry relative="1" as="geometry" />
        </mxCell>
        <mxCell id="QMlob4MlyVVxAFYZ2pW8-296" value="&lt;span style=&quot;font-size: 10px;&quot;&gt;몬스터 정보 간략히 출력&lt;/span&gt;" style="shape=document;whiteSpace=wrap;html=1;boundedLbl=1;fontStyle=1;strokeWidth=2;" parent="1" vertex="1">
          <mxGeometry x="-520" y="300" width="120" height="40" as="geometry" />
        </mxCell>
        <mxCell id="QMlob4MlyVVxAFYZ2pW8-302" value="PC 필드 행동" style="rounded=1;whiteSpace=wrap;html=1;arcSize=50;strokeWidth=2;fontSize=10;fontStyle=1" parent="1" vertex="1">
          <mxGeometry x="-520" y="480" width="120" height="40" as="geometry" />
        </mxCell>
        <mxCell id="QMlob4MlyVVxAFYZ2pW8-308" style="edgeStyle=orthogonalEdgeStyle;rounded=0;orthogonalLoop=1;jettySize=auto;html=1;exitX=0.5;exitY=1;exitDx=0;exitDy=0;strokeWidth=2;" parent="1" source="QMlob4MlyVVxAFYZ2pW8-306" target="QMlob4MlyVVxAFYZ2pW8-307" edge="1">
          <mxGeometry relative="1" as="geometry" />
        </mxCell>
        <mxCell id="QMlob4MlyVVxAFYZ2pW8-334" style="edgeStyle=orthogonalEdgeStyle;rounded=0;orthogonalLoop=1;jettySize=auto;html=1;exitX=1;exitY=0.5;exitDx=0;exitDy=0;entryX=1;entryY=0.5;entryDx=0;entryDy=0;strokeColor=#990000;strokeWidth=2;" parent="1" source="QMlob4MlyVVxAFYZ2pW8-306" target="QMlob4MlyVVxAFYZ2pW8-302" edge="1">
          <mxGeometry relative="1" as="geometry" />
        </mxCell>
        <mxCell id="QMlob4MlyVVxAFYZ2pW8-306" value="공격 가능 범위?" style="rhombus;whiteSpace=wrap;html=1;strokeWidth=2;fontSize=10;fontStyle=1" parent="1" vertex="1">
          <mxGeometry x="-520" y="360" width="120" height="40" as="geometry" />
        </mxCell>
        <mxCell id="QMlob4MlyVVxAFYZ2pW8-309" style="edgeStyle=orthogonalEdgeStyle;rounded=0;orthogonalLoop=1;jettySize=auto;html=1;exitX=0.5;exitY=1;exitDx=0;exitDy=0;entryX=0.5;entryY=0;entryDx=0;entryDy=0;strokeWidth=2;" parent="1" source="QMlob4MlyVVxAFYZ2pW8-307" target="QMlob4MlyVVxAFYZ2pW8-302" edge="1">
          <mxGeometry relative="1" as="geometry" />
        </mxCell>
        <mxCell id="QMlob4MlyVVxAFYZ2pW8-307" value="범위 내 몬스터 중&amp;nbsp;&lt;div&gt;가장 조준점에 가까운&lt;/div&gt;&lt;div&gt;몬스터 타겟 설정&lt;/div&gt;" style="rounded=1;whiteSpace=wrap;html=1;arcSize=0;strokeWidth=2;fontSize=10;fontStyle=1" parent="1" vertex="1">
          <mxGeometry x="-520" y="420" width="120" height="40" as="geometry" />
        </mxCell>
        <mxCell id="QMlob4MlyVVxAFYZ2pW8-374" style="edgeStyle=orthogonalEdgeStyle;rounded=0;orthogonalLoop=1;jettySize=auto;html=1;exitX=0.5;exitY=1;exitDx=0;exitDy=0;strokeWidth=2;" parent="1" source="QMlob4MlyVVxAFYZ2pW8-371" target="QMlob4MlyVVxAFYZ2pW8-372" edge="1">
          <mxGeometry relative="1" as="geometry" />
        </mxCell>
        <mxCell id="QMlob4MlyVVxAFYZ2pW8-371" value="몬스터 그룹&lt;div&gt;시작&lt;/div&gt;" style="rounded=1;whiteSpace=wrap;html=1;arcSize=50;strokeWidth=2;fontSize=10;fontStyle=1" parent="1" vertex="1">
          <mxGeometry x="-320" y="480" width="120" height="40" as="geometry" />
        </mxCell>
        <mxCell id="QMlob4MlyVVxAFYZ2pW8-375" style="edgeStyle=orthogonalEdgeStyle;rounded=0;orthogonalLoop=1;jettySize=auto;html=1;exitX=0.5;exitY=1;exitDx=0;exitDy=0;strokeWidth=2;" parent="1" source="QMlob4MlyVVxAFYZ2pW8-372" target="QMlob4MlyVVxAFYZ2pW8-373" edge="1">
          <mxGeometry relative="1" as="geometry" />
        </mxCell>
        <mxCell id="QMlob4MlyVVxAFYZ2pW8-380" style="edgeStyle=orthogonalEdgeStyle;rounded=0;orthogonalLoop=1;jettySize=auto;html=1;exitX=1;exitY=0.5;exitDx=0;exitDy=0;entryX=0;entryY=0.5;entryDx=0;entryDy=0;strokeColor=#990000;strokeWidth=2;" parent="1" source="QMlob4MlyVVxAFYZ2pW8-372" target="QMlob4MlyVVxAFYZ2pW8-379" edge="1">
          <mxGeometry relative="1" as="geometry" />
        </mxCell>
        <mxCell id="QMlob4MlyVVxAFYZ2pW8-372" value="그룹 범위 내&lt;div&gt;다른 몬스터?&lt;/div&gt;" style="rhombus;whiteSpace=wrap;html=1;strokeWidth=2;fontSize=10;fontStyle=1" parent="1" vertex="1">
          <mxGeometry x="-320" y="540" width="120" height="40" as="geometry" />
        </mxCell>
        <mxCell id="QMlob4MlyVVxAFYZ2pW8-383" style="edgeStyle=orthogonalEdgeStyle;rounded=0;orthogonalLoop=1;jettySize=auto;html=1;exitX=0.5;exitY=1;exitDx=0;exitDy=0;strokeWidth=2;" parent="1" source="QMlob4MlyVVxAFYZ2pW8-373" target="QMlob4MlyVVxAFYZ2pW8-376" edge="1">
          <mxGeometry relative="1" as="geometry" />
        </mxCell>
        <mxCell id="QMlob4MlyVVxAFYZ2pW8-373" value="몬스터 그룹 설정" style="rounded=1;whiteSpace=wrap;html=1;arcSize=0;strokeWidth=2;fontSize=10;fontStyle=1" parent="1" vertex="1">
          <mxGeometry x="-320" y="600" width="120" height="40" as="geometry" />
        </mxCell>
        <mxCell id="QMlob4MlyVVxAFYZ2pW8-376" value="몬스터 필드 행동&lt;div&gt;시작&lt;/div&gt;" style="rounded=1;whiteSpace=wrap;html=1;arcSize=50;strokeWidth=2;fontSize=10;fontStyle=1" parent="1" vertex="1">
          <mxGeometry x="-320" y="660" width="120" height="40" as="geometry" />
        </mxCell>
        <mxCell id="QMlob4MlyVVxAFYZ2pW8-384" style="edgeStyle=orthogonalEdgeStyle;rounded=0;orthogonalLoop=1;jettySize=auto;html=1;exitX=0.5;exitY=1;exitDx=0;exitDy=0;entryX=0.5;entryY=0;entryDx=0;entryDy=0;strokeWidth=2;" parent="1" source="QMlob4MlyVVxAFYZ2pW8-377" target="QMlob4MlyVVxAFYZ2pW8-376" edge="1">
          <mxGeometry relative="1" as="geometry">
            <Array as="points">
              <mxPoint x="-120" y="650" />
              <mxPoint x="-260" y="650" />
            </Array>
          </mxGeometry>
        </mxCell>
        <mxCell id="QMlob4MlyVVxAFYZ2pW8-377" value="몬스터 그룹 설정 해제" style="rounded=1;whiteSpace=wrap;html=1;arcSize=0;strokeWidth=2;fontSize=10;fontStyle=1" parent="1" vertex="1">
          <mxGeometry x="-180" y="600" width="120" height="40" as="geometry" />
        </mxCell>
        <mxCell id="QMlob4MlyVVxAFYZ2pW8-381" style="edgeStyle=orthogonalEdgeStyle;rounded=0;orthogonalLoop=1;jettySize=auto;html=1;exitX=0.5;exitY=1;exitDx=0;exitDy=0;strokeWidth=2;" parent="1" source="QMlob4MlyVVxAFYZ2pW8-379" target="QMlob4MlyVVxAFYZ2pW8-377" edge="1">
          <mxGeometry relative="1" as="geometry" />
        </mxCell>
        <mxCell id="QMlob4MlyVVxAFYZ2pW8-382" style="edgeStyle=orthogonalEdgeStyle;rounded=0;orthogonalLoop=1;jettySize=auto;html=1;exitX=1;exitY=0.5;exitDx=0;exitDy=0;entryX=1;entryY=0.5;entryDx=0;entryDy=0;strokeColor=#990000;strokeWidth=2;" parent="1" source="QMlob4MlyVVxAFYZ2pW8-379" target="QMlob4MlyVVxAFYZ2pW8-376" edge="1">
          <mxGeometry relative="1" as="geometry" />
        </mxCell>
        <mxCell id="QMlob4MlyVVxAFYZ2pW8-379" value="그룹 존재?" style="rhombus;whiteSpace=wrap;html=1;strokeWidth=2;fontSize=10;fontStyle=1" parent="1" vertex="1">
          <mxGeometry x="-180" y="540" width="120" height="40" as="geometry" />
        </mxCell>
        <mxCell id="QMlob4MlyVVxAFYZ2pW8-385" style="edgeStyle=orthogonalEdgeStyle;rounded=0;orthogonalLoop=1;jettySize=auto;html=1;exitX=0.5;exitY=1;exitDx=0;exitDy=0;entryX=0.5;entryY=0;entryDx=0;entryDy=0;strokeWidth=2;" parent="1" source="QMlob4MlyVVxAFYZ2pW8-386" target="QMlob4MlyVVxAFYZ2pW8-389" edge="1">
          <mxGeometry relative="1" as="geometry" />
        </mxCell>
        <mxCell id="QMlob4MlyVVxAFYZ2pW8-386" value="&lt;div&gt;소환&lt;/div&gt;&lt;div&gt;시작&lt;/div&gt;" style="rounded=1;whiteSpace=wrap;html=1;arcSize=50;strokeWidth=2;fontSize=10;fontStyle=1" parent="1" vertex="1">
          <mxGeometry x="160" y="640" width="120" height="40" as="geometry" />
        </mxCell>
        <mxCell id="QMlob4MlyVVxAFYZ2pW8-388" style="edgeStyle=orthogonalEdgeStyle;rounded=0;orthogonalLoop=1;jettySize=auto;html=1;exitX=0.5;exitY=1;exitDx=0;exitDy=0;strokeWidth=2;" parent="1" source="QMlob4MlyVVxAFYZ2pW8-389" target="QMlob4MlyVVxAFYZ2pW8-396" edge="1">
          <mxGeometry relative="1" as="geometry">
            <mxPoint x="220" y="760" as="targetPoint" />
          </mxGeometry>
        </mxCell>
        <mxCell id="QMlob4MlyVVxAFYZ2pW8-401" style="edgeStyle=orthogonalEdgeStyle;rounded=0;orthogonalLoop=1;jettySize=auto;html=1;exitX=1;exitY=0.5;exitDx=0;exitDy=0;entryX=0;entryY=0.5;entryDx=0;entryDy=0;strokeColor=#990000;strokeWidth=2;" parent="1" source="QMlob4MlyVVxAFYZ2pW8-389" target="QMlob4MlyVVxAFYZ2pW8-390" edge="1">
          <mxGeometry relative="1" as="geometry">
            <Array as="points">
              <mxPoint x="290" y="720" />
              <mxPoint x="290" y="840" />
            </Array>
          </mxGeometry>
        </mxCell>
        <mxCell id="QMlob4MlyVVxAFYZ2pW8-389" value="소환 조건?" style="rhombus;whiteSpace=wrap;html=1;strokeWidth=2;fontSize=10;fontStyle=1" parent="1" vertex="1">
          <mxGeometry x="160" y="700" width="120" height="40" as="geometry" />
        </mxCell>
        <mxCell id="QMlob4MlyVVxAFYZ2pW8-390" value="종료" style="rounded=1;whiteSpace=wrap;html=1;arcSize=50;strokeWidth=2;fontSize=10;fontStyle=1" parent="1" vertex="1">
          <mxGeometry x="300" y="820" width="40" height="40" as="geometry" />
        </mxCell>
        <mxCell id="QMlob4MlyVVxAFYZ2pW8-391" value="몬스터 필드 행동" style="rounded=1;whiteSpace=wrap;html=1;arcSize=50;strokeWidth=2;fontSize=10;fontStyle=1" parent="1" vertex="1">
          <mxGeometry x="160" y="880" width="120" height="40" as="geometry" />
        </mxCell>
        <mxCell id="QMlob4MlyVVxAFYZ2pW8-398" style="edgeStyle=orthogonalEdgeStyle;rounded=0;orthogonalLoop=1;jettySize=auto;html=1;exitX=0.5;exitY=1;exitDx=0;exitDy=0;strokeWidth=2;" parent="1" source="QMlob4MlyVVxAFYZ2pW8-396" target="QMlob4MlyVVxAFYZ2pW8-397" edge="1">
          <mxGeometry relative="1" as="geometry" />
        </mxCell>
        <mxCell id="QMlob4MlyVVxAFYZ2pW8-396" value="&lt;div&gt;소환&lt;/div&gt;" style="rounded=1;whiteSpace=wrap;html=1;arcSize=0;strokeWidth=2;fontSize=10;fontStyle=1" parent="1" vertex="1">
          <mxGeometry x="160" y="760" width="120" height="40" as="geometry" />
        </mxCell>
        <mxCell id="QMlob4MlyVVxAFYZ2pW8-399" style="edgeStyle=orthogonalEdgeStyle;rounded=0;orthogonalLoop=1;jettySize=auto;html=1;exitX=0.5;exitY=1;exitDx=0;exitDy=0;strokeWidth=2;" parent="1" source="QMlob4MlyVVxAFYZ2pW8-397" target="QMlob4MlyVVxAFYZ2pW8-391" edge="1">
          <mxGeometry relative="1" as="geometry" />
        </mxCell>
        <mxCell id="QMlob4MlyVVxAFYZ2pW8-402" style="edgeStyle=orthogonalEdgeStyle;rounded=0;orthogonalLoop=1;jettySize=auto;html=1;exitX=1;exitY=0.5;exitDx=0;exitDy=0;strokeColor=#990000;strokeWidth=2;" parent="1" source="QMlob4MlyVVxAFYZ2pW8-397" edge="1">
          <mxGeometry relative="1" as="geometry">
            <mxPoint x="300" y="839.7931034482758" as="targetPoint" />
          </mxGeometry>
        </mxCell>
        <mxCell id="QMlob4MlyVVxAFYZ2pW8-397" value="대기 시간 초과?" style="rhombus;whiteSpace=wrap;html=1;strokeWidth=2;fontSize=10;fontStyle=1" parent="1" vertex="1">
          <mxGeometry x="160" y="820" width="120" height="40" as="geometry" />
        </mxCell>
        <mxCell id="QMlob4MlyVVxAFYZ2pW8-404" style="edgeStyle=orthogonalEdgeStyle;rounded=0;orthogonalLoop=1;jettySize=auto;html=1;exitX=0.5;exitY=1;exitDx=0;exitDy=0;entryX=0.5;entryY=0;entryDx=0;entryDy=0;strokeWidth=2;" parent="1" source="QMlob4MlyVVxAFYZ2pW8-403" target="QMlob4MlyVVxAFYZ2pW8-244" edge="1">
          <mxGeometry relative="1" as="geometry" />
        </mxCell>
        <mxCell id="QMlob4MlyVVxAFYZ2pW8-403" value="강인도 감소" style="rounded=1;whiteSpace=wrap;html=1;arcSize=0;strokeWidth=2;fontSize=10;fontStyle=1" parent="1" vertex="1">
          <mxGeometry x="720.03" y="1160" width="120" height="40" as="geometry" />
        </mxCell>
        <mxCell id="QMlob4MlyVVxAFYZ2pW8-410" style="edgeStyle=orthogonalEdgeStyle;rounded=0;orthogonalLoop=1;jettySize=auto;html=1;exitX=0.5;exitY=1;exitDx=0;exitDy=0;strokeWidth=2;" parent="1" source="QMlob4MlyVVxAFYZ2pW8-407" target="QMlob4MlyVVxAFYZ2pW8-408" edge="1">
          <mxGeometry relative="1" as="geometry" />
        </mxCell>
        <mxCell id="QMlob4MlyVVxAFYZ2pW8-407" value="보너스 턴&lt;div&gt;시작&lt;/div&gt;" style="rounded=1;whiteSpace=wrap;html=1;arcSize=50;strokeWidth=2;fontSize=10;fontStyle=1" parent="1" vertex="1">
          <mxGeometry x="1520" y="1440" width="120" height="40" as="geometry" />
        </mxCell>
        <mxCell id="QMlob4MlyVVxAFYZ2pW8-411" style="edgeStyle=orthogonalEdgeStyle;rounded=0;orthogonalLoop=1;jettySize=auto;html=1;exitX=0.5;exitY=1;exitDx=0;exitDy=0;strokeWidth=2;" parent="1" source="QMlob4MlyVVxAFYZ2pW8-408" target="QMlob4MlyVVxAFYZ2pW8-409" edge="1">
          <mxGeometry relative="1" as="geometry" />
        </mxCell>
        <mxCell id="QMlob4MlyVVxAFYZ2pW8-408" value="바로 턴을 받아 행동" style="rounded=1;whiteSpace=wrap;html=1;arcSize=0;strokeWidth=2;fontSize=10;fontStyle=1" parent="1" vertex="1">
          <mxGeometry x="1520" y="1500" width="120" height="40" as="geometry" />
        </mxCell>
        <mxCell id="QMlob4MlyVVxAFYZ2pW8-409" value="행동 순서 정렬" style="rounded=1;whiteSpace=wrap;html=1;arcSize=50;strokeWidth=2;fontSize=10;fontStyle=1" parent="1" vertex="1">
          <mxGeometry x="1520" y="1560" width="120" height="40" as="geometry" />
        </mxCell>
        <mxCell id="QMlob4MlyVVxAFYZ2pW8-417" style="edgeStyle=orthogonalEdgeStyle;rounded=0;orthogonalLoop=1;jettySize=auto;html=1;exitX=0.5;exitY=1;exitDx=0;exitDy=0;strokeWidth=2;" parent="1" source="QMlob4MlyVVxAFYZ2pW8-412" target="QMlob4MlyVVxAFYZ2pW8-414" edge="1">
          <mxGeometry relative="1" as="geometry" />
        </mxCell>
        <mxCell id="QMlob4MlyVVxAFYZ2pW8-412" value="필살기&lt;div&gt;시작&lt;/div&gt;" style="rounded=1;whiteSpace=wrap;html=1;arcSize=50;strokeWidth=2;fontSize=10;fontStyle=1" parent="1" vertex="1">
          <mxGeometry x="1241" y="1440" width="120" height="40" as="geometry" />
        </mxCell>
        <mxCell id="QMlob4MlyVVxAFYZ2pW8-426" style="edgeStyle=orthogonalEdgeStyle;rounded=0;orthogonalLoop=1;jettySize=auto;html=1;exitX=0.5;exitY=1;exitDx=0;exitDy=0;strokeWidth=2;" parent="1" source="QMlob4MlyVVxAFYZ2pW8-413" target="QMlob4MlyVVxAFYZ2pW8-424" edge="1">
          <mxGeometry relative="1" as="geometry" />
        </mxCell>
        <mxCell id="QMlob4MlyVVxAFYZ2pW8-413" value="추가 공격&lt;div&gt;시작&lt;/div&gt;" style="rounded=1;whiteSpace=wrap;html=1;arcSize=50;strokeWidth=2;fontSize=10;fontStyle=1" parent="1" vertex="1">
          <mxGeometry x="960.03" y="1440" width="120" height="40" as="geometry" />
        </mxCell>
        <mxCell id="QMlob4MlyVVxAFYZ2pW8-418" style="edgeStyle=orthogonalEdgeStyle;rounded=0;orthogonalLoop=1;jettySize=auto;html=1;exitX=0.5;exitY=1;exitDx=0;exitDy=0;strokeWidth=2;" parent="1" source="QMlob4MlyVVxAFYZ2pW8-414" target="QMlob4MlyVVxAFYZ2pW8-415" edge="1">
          <mxGeometry relative="1" as="geometry" />
        </mxCell>
        <mxCell id="QMlob4MlyVVxAFYZ2pW8-422" style="edgeStyle=orthogonalEdgeStyle;rounded=0;orthogonalLoop=1;jettySize=auto;html=1;exitX=1;exitY=0.5;exitDx=0;exitDy=0;entryX=0;entryY=0.5;entryDx=0;entryDy=0;strokeColor=#990000;strokeWidth=2;" parent="1" source="QMlob4MlyVVxAFYZ2pW8-414" target="QMlob4MlyVVxAFYZ2pW8-421" edge="1">
          <mxGeometry relative="1" as="geometry">
            <Array as="points">
              <mxPoint x="1370" y="1520" />
              <mxPoint x="1370" y="1580" />
            </Array>
          </mxGeometry>
        </mxCell>
        <mxCell id="QMlob4MlyVVxAFYZ2pW8-414" value="필살기 에너지&lt;div&gt;최대?&lt;/div&gt;" style="rhombus;whiteSpace=wrap;html=1;strokeWidth=2;fontSize=10;fontStyle=1" parent="1" vertex="1">
          <mxGeometry x="1241" y="1500" width="120" height="40" as="geometry" />
        </mxCell>
        <mxCell id="QMlob4MlyVVxAFYZ2pW8-420" style="edgeStyle=orthogonalEdgeStyle;rounded=0;orthogonalLoop=1;jettySize=auto;html=1;exitX=0.5;exitY=1;exitDx=0;exitDy=0;strokeWidth=2;" parent="1" source="QMlob4MlyVVxAFYZ2pW8-415" target="QMlob4MlyVVxAFYZ2pW8-419" edge="1">
          <mxGeometry relative="1" as="geometry" />
        </mxCell>
        <mxCell id="QMlob4MlyVVxAFYZ2pW8-423" style="edgeStyle=orthogonalEdgeStyle;rounded=0;orthogonalLoop=1;jettySize=auto;html=1;exitX=1;exitY=0.5;exitDx=0;exitDy=0;entryX=0;entryY=0.5;entryDx=0;entryDy=0;strokeColor=#990000;strokeWidth=2;" parent="1" source="QMlob4MlyVVxAFYZ2pW8-415" target="QMlob4MlyVVxAFYZ2pW8-421" edge="1">
          <mxGeometry relative="1" as="geometry" />
        </mxCell>
        <mxCell id="QMlob4MlyVVxAFYZ2pW8-415" value="필살기 사용?" style="rhombus;whiteSpace=wrap;html=1;strokeWidth=2;fontSize=10;fontStyle=1" parent="1" vertex="1">
          <mxGeometry x="1241" y="1560" width="120" height="40" as="geometry" />
        </mxCell>
        <mxCell id="QMlob4MlyVVxAFYZ2pW8-419" value="보너스 턴" style="rounded=1;whiteSpace=wrap;html=1;arcSize=50;strokeWidth=2;fontSize=10;fontStyle=1" parent="1" vertex="1">
          <mxGeometry x="1241" y="1620" width="120" height="40" as="geometry" />
        </mxCell>
        <mxCell id="QMlob4MlyVVxAFYZ2pW8-421" value="종료" style="rounded=1;whiteSpace=wrap;html=1;arcSize=50;strokeWidth=2;fontSize=10;fontStyle=1" parent="1" vertex="1">
          <mxGeometry x="1380" y="1560" width="40" height="40" as="geometry" />
        </mxCell>
        <mxCell id="QMlob4MlyVVxAFYZ2pW8-427" style="edgeStyle=orthogonalEdgeStyle;rounded=0;orthogonalLoop=1;jettySize=auto;html=1;exitX=0.5;exitY=1;exitDx=0;exitDy=0;strokeWidth=2;" parent="1" source="QMlob4MlyVVxAFYZ2pW8-424" target="QMlob4MlyVVxAFYZ2pW8-425" edge="1">
          <mxGeometry relative="1" as="geometry" />
        </mxCell>
        <mxCell id="QMlob4MlyVVxAFYZ2pW8-429" style="edgeStyle=orthogonalEdgeStyle;rounded=0;orthogonalLoop=1;jettySize=auto;html=1;exitX=1;exitY=0.5;exitDx=0;exitDy=0;strokeColor=#990000;strokeWidth=2;" parent="1" source="QMlob4MlyVVxAFYZ2pW8-424" target="QMlob4MlyVVxAFYZ2pW8-428" edge="1">
          <mxGeometry relative="1" as="geometry" />
        </mxCell>
        <mxCell id="QMlob4MlyVVxAFYZ2pW8-424" value="추가 공격 조건&lt;div&gt;달성?&lt;/div&gt;" style="rhombus;whiteSpace=wrap;html=1;strokeWidth=2;fontSize=10;fontStyle=1" parent="1" vertex="1">
          <mxGeometry x="960.03" y="1500" width="120" height="40" as="geometry" />
        </mxCell>
        <mxCell id="QMlob4MlyVVxAFYZ2pW8-425" value="보너스 턴" style="rounded=1;whiteSpace=wrap;html=1;arcSize=50;strokeWidth=2;fontSize=10;fontStyle=1" parent="1" vertex="1">
          <mxGeometry x="960.03" y="1560" width="120" height="40" as="geometry" />
        </mxCell>
        <mxCell id="QMlob4MlyVVxAFYZ2pW8-428" value="종료" style="rounded=1;whiteSpace=wrap;html=1;arcSize=50;strokeWidth=2;fontSize=10;fontStyle=1" parent="1" vertex="1">
          <mxGeometry x="1100.03" y="1500" width="40" height="40" as="geometry" />
        </mxCell>
        <mxCell id="QMlob4MlyVVxAFYZ2pW8-431" style="edgeStyle=orthogonalEdgeStyle;rounded=0;orthogonalLoop=1;jettySize=auto;html=1;exitX=0.5;exitY=1;exitDx=0;exitDy=0;entryX=0.5;entryY=0;entryDx=0;entryDy=0;strokeWidth=2;" parent="1" source="QMlob4MlyVVxAFYZ2pW8-430" target="QMlob4MlyVVxAFYZ2pW8-178" edge="1">
          <mxGeometry relative="1" as="geometry" />
        </mxCell>
        <mxCell id="QMlob4MlyVVxAFYZ2pW8-430" value="스킬 포인트 사용" style="rounded=1;whiteSpace=wrap;html=1;arcSize=0;strokeWidth=2;fontSize=10;fontStyle=1" parent="1" vertex="1">
          <mxGeometry x="1620" y="1080" width="120" height="40" as="geometry" />
        </mxCell>
        <mxCell id="BatN52UNzMT4k8E99eQ0-38" style="edgeStyle=orthogonalEdgeStyle;rounded=0;orthogonalLoop=1;jettySize=auto;html=1;exitX=0.5;exitY=1;exitDx=0;exitDy=0;strokeWidth=2;" edge="1" parent="1" source="BatN52UNzMT4k8E99eQ0-2" target="BatN52UNzMT4k8E99eQ0-34">
          <mxGeometry relative="1" as="geometry" />
        </mxCell>
        <mxCell id="BatN52UNzMT4k8E99eQ0-2" value="PC 필드 기본 공격&lt;div&gt;시작&lt;/div&gt;" style="rounded=1;whiteSpace=wrap;html=1;arcSize=50;strokeWidth=2;fontSize=10;fontStyle=1" vertex="1" parent="1">
          <mxGeometry x="-800" y="800" width="120" height="40" as="geometry" />
        </mxCell>
        <mxCell id="BatN52UNzMT4k8E99eQ0-16" value="선제 공격" style="rounded=1;whiteSpace=wrap;html=1;arcSize=50;strokeWidth=2;fontSize=10;fontStyle=1" vertex="1" parent="1">
          <mxGeometry x="-600" y="1500" width="120" height="40" as="geometry" />
        </mxCell>
        <mxCell id="BatN52UNzMT4k8E99eQ0-39" style="edgeStyle=orthogonalEdgeStyle;rounded=0;orthogonalLoop=1;jettySize=auto;html=1;exitX=0.5;exitY=1;exitDx=0;exitDy=0;entryX=0.5;entryY=0;entryDx=0;entryDy=0;strokeWidth=2;" edge="1" parent="1" source="BatN52UNzMT4k8E99eQ0-34" target="BatN52UNzMT4k8E99eQ0-35">
          <mxGeometry relative="1" as="geometry" />
        </mxCell>
        <mxCell id="BatN52UNzMT4k8E99eQ0-34" value="&lt;span style=&quot;font-size: 10px; font-weight: 700;&quot;&gt;마우스 좌 클릭&lt;/span&gt;" style="shape=manualInput;whiteSpace=wrap;html=1;size=13;strokeWidth=2;" vertex="1" parent="1">
          <mxGeometry x="-800" y="860" width="120" height="40" as="geometry" />
        </mxCell>
        <mxCell id="BatN52UNzMT4k8E99eQ0-40" style="edgeStyle=orthogonalEdgeStyle;rounded=0;orthogonalLoop=1;jettySize=auto;html=1;exitX=1;exitY=0.5;exitDx=0;exitDy=0;entryX=0;entryY=0.5;entryDx=0;entryDy=0;strokeColor=#990000;strokeWidth=2;" edge="1" parent="1" source="BatN52UNzMT4k8E99eQ0-35" target="BatN52UNzMT4k8E99eQ0-37">
          <mxGeometry relative="1" as="geometry" />
        </mxCell>
        <mxCell id="BatN52UNzMT4k8E99eQ0-80" style="edgeStyle=orthogonalEdgeStyle;rounded=0;orthogonalLoop=1;jettySize=auto;html=1;exitX=0.5;exitY=1;exitDx=0;exitDy=0;strokeWidth=2;" edge="1" parent="1" source="BatN52UNzMT4k8E99eQ0-35" target="BatN52UNzMT4k8E99eQ0-79">
          <mxGeometry relative="1" as="geometry" />
        </mxCell>
        <mxCell id="BatN52UNzMT4k8E99eQ0-35" value="타겟 유무?" style="rhombus;whiteSpace=wrap;html=1;strokeWidth=2;fontSize=10;fontStyle=1" vertex="1" parent="1">
          <mxGeometry x="-800" y="920" width="120" height="40" as="geometry" />
        </mxCell>
        <mxCell id="BatN52UNzMT4k8E99eQ0-77" style="edgeStyle=orthogonalEdgeStyle;rounded=0;orthogonalLoop=1;jettySize=auto;html=1;exitX=1;exitY=0.5;exitDx=0;exitDy=0;entryX=0;entryY=0.5;entryDx=0;entryDy=0;strokeWidth=2;" edge="1" parent="1" source="BatN52UNzMT4k8E99eQ0-37" target="BatN52UNzMT4k8E99eQ0-70">
          <mxGeometry relative="1" as="geometry" />
        </mxCell>
        <mxCell id="BatN52UNzMT4k8E99eQ0-37" value="보는 방향으로&amp;nbsp;&lt;div&gt;허공에 기본 공격&lt;/div&gt;" style="rounded=1;whiteSpace=wrap;html=1;arcSize=0;strokeWidth=2;fontSize=10;fontStyle=1" vertex="1" parent="1">
          <mxGeometry x="-660" y="920" width="120" height="40" as="geometry" />
        </mxCell>
        <mxCell id="BatN52UNzMT4k8E99eQ0-118" style="edgeStyle=orthogonalEdgeStyle;rounded=0;orthogonalLoop=1;jettySize=auto;html=1;exitX=1;exitY=0.5;exitDx=0;exitDy=0;entryX=0.5;entryY=1;entryDx=0;entryDy=0;strokeColor=#990000;strokeWidth=2;" edge="1" parent="1" source="BatN52UNzMT4k8E99eQ0-42" target="BatN52UNzMT4k8E99eQ0-37">
          <mxGeometry relative="1" as="geometry" />
        </mxCell>
        <mxCell id="BatN52UNzMT4k8E99eQ0-145" style="edgeStyle=orthogonalEdgeStyle;rounded=0;orthogonalLoop=1;jettySize=auto;html=1;exitX=0.5;exitY=1;exitDx=0;exitDy=0;strokeWidth=2;" edge="1" parent="1" source="BatN52UNzMT4k8E99eQ0-42" target="BatN52UNzMT4k8E99eQ0-144">
          <mxGeometry relative="1" as="geometry" />
        </mxCell>
        <mxCell id="BatN52UNzMT4k8E99eQ0-42" value="타격?" style="rhombus;whiteSpace=wrap;html=1;strokeWidth=2;fontSize=10;fontStyle=1" vertex="1" parent="1">
          <mxGeometry x="-800" y="1100" width="120" height="40" as="geometry" />
        </mxCell>
        <mxCell id="BatN52UNzMT4k8E99eQ0-70" value="종료" style="rounded=1;whiteSpace=wrap;html=1;arcSize=50;strokeWidth=2;fontSize=10;fontStyle=1" vertex="1" parent="1">
          <mxGeometry x="-520" y="920" width="40" height="40" as="geometry" />
        </mxCell>
        <mxCell id="BatN52UNzMT4k8E99eQ0-83" style="edgeStyle=orthogonalEdgeStyle;rounded=0;orthogonalLoop=1;jettySize=auto;html=1;exitX=0;exitY=0.5;exitDx=0;exitDy=0;strokeColor=#990000;strokeWidth=2;" edge="1" parent="1" source="BatN52UNzMT4k8E99eQ0-79" target="BatN52UNzMT4k8E99eQ0-82">
          <mxGeometry relative="1" as="geometry" />
        </mxCell>
        <mxCell id="BatN52UNzMT4k8E99eQ0-90" style="edgeStyle=orthogonalEdgeStyle;rounded=0;orthogonalLoop=1;jettySize=auto;html=1;exitX=0.5;exitY=1;exitDx=0;exitDy=0;entryX=0.5;entryY=0;entryDx=0;entryDy=0;strokeWidth=2;" edge="1" parent="1" source="BatN52UNzMT4k8E99eQ0-79" target="BatN52UNzMT4k8E99eQ0-89">
          <mxGeometry relative="1" as="geometry" />
        </mxCell>
        <mxCell id="BatN52UNzMT4k8E99eQ0-79" value="몬스터 공격&lt;div&gt;범위안?&lt;/div&gt;" style="rhombus;whiteSpace=wrap;html=1;strokeWidth=2;fontSize=10;fontStyle=1" vertex="1" parent="1">
          <mxGeometry x="-800" y="980" width="120" height="40" as="geometry" />
        </mxCell>
        <mxCell id="BatN52UNzMT4k8E99eQ0-84" style="edgeStyle=orthogonalEdgeStyle;rounded=0;orthogonalLoop=1;jettySize=auto;html=1;exitX=0.5;exitY=1;exitDx=0;exitDy=0;entryX=0;entryY=0.5;entryDx=0;entryDy=0;strokeWidth=2;" edge="1" parent="1" source="BatN52UNzMT4k8E99eQ0-82" target="BatN52UNzMT4k8E99eQ0-42">
          <mxGeometry relative="1" as="geometry" />
        </mxCell>
        <mxCell id="BatN52UNzMT4k8E99eQ0-82" value="몬스터가 공격 범위 안에 들어오는 위치로 이동" style="rounded=1;whiteSpace=wrap;html=1;arcSize=0;strokeWidth=2;fontSize=10;fontStyle=1" vertex="1" parent="1">
          <mxGeometry x="-947" y="980" width="120" height="40" as="geometry" />
        </mxCell>
        <mxCell id="BatN52UNzMT4k8E99eQ0-94" style="edgeStyle=orthogonalEdgeStyle;rounded=0;orthogonalLoop=1;jettySize=auto;html=1;exitX=0.5;exitY=1;exitDx=0;exitDy=0;strokeWidth=2;" edge="1" parent="1" source="BatN52UNzMT4k8E99eQ0-86" target="BatN52UNzMT4k8E99eQ0-87">
          <mxGeometry relative="1" as="geometry" />
        </mxCell>
        <mxCell id="BatN52UNzMT4k8E99eQ0-86" value="PC 비술 사용&lt;div&gt;&lt;div&gt;시작&lt;/div&gt;&lt;/div&gt;" style="rounded=1;whiteSpace=wrap;html=1;arcSize=50;strokeWidth=2;fontSize=10;fontStyle=1" vertex="1" parent="1">
          <mxGeometry x="-320" y="740" width="120" height="40" as="geometry" />
        </mxCell>
        <mxCell id="BatN52UNzMT4k8E99eQ0-203" style="edgeStyle=orthogonalEdgeStyle;rounded=0;orthogonalLoop=1;jettySize=auto;html=1;exitX=0.5;exitY=1;exitDx=0;exitDy=0;entryX=0.5;entryY=0;entryDx=0;entryDy=0;strokeWidth=2;" edge="1" parent="1" source="BatN52UNzMT4k8E99eQ0-87" target="BatN52UNzMT4k8E99eQ0-199">
          <mxGeometry relative="1" as="geometry" />
        </mxCell>
        <mxCell id="BatN52UNzMT4k8E99eQ0-87" value="&lt;span style=&quot;font-size: 10px; font-weight: 700;&quot;&gt;E key 클릭&lt;/span&gt;" style="shape=manualInput;whiteSpace=wrap;html=1;size=13;strokeWidth=2;" vertex="1" parent="1">
          <mxGeometry x="-320" y="800" width="120" height="40" as="geometry" />
        </mxCell>
        <mxCell id="BatN52UNzMT4k8E99eQ0-132" style="edgeStyle=orthogonalEdgeStyle;rounded=0;orthogonalLoop=1;jettySize=auto;html=1;exitX=0.5;exitY=1;exitDx=0;exitDy=0;strokeWidth=2;" edge="1" parent="1" source="BatN52UNzMT4k8E99eQ0-88" target="BatN52UNzMT4k8E99eQ0-131">
          <mxGeometry relative="1" as="geometry" />
        </mxCell>
        <mxCell id="BatN52UNzMT4k8E99eQ0-88" value="비술 사용" style="rounded=1;whiteSpace=wrap;html=1;arcSize=0;strokeWidth=2;fontSize=10;fontStyle=1" vertex="1" parent="1">
          <mxGeometry x="-320" y="1100" width="120" height="40" as="geometry" />
        </mxCell>
        <mxCell id="BatN52UNzMT4k8E99eQ0-91" style="edgeStyle=orthogonalEdgeStyle;rounded=0;orthogonalLoop=1;jettySize=auto;html=1;exitX=0.5;exitY=1;exitDx=0;exitDy=0;entryX=0.5;entryY=0;entryDx=0;entryDy=0;strokeWidth=2;" edge="1" parent="1" source="BatN52UNzMT4k8E99eQ0-89" target="BatN52UNzMT4k8E99eQ0-42">
          <mxGeometry relative="1" as="geometry" />
        </mxCell>
        <mxCell id="BatN52UNzMT4k8E99eQ0-89" value="&lt;span style=&quot;background-color: initial;&quot;&gt;타겟에 기본 공격&lt;/span&gt;" style="rounded=1;whiteSpace=wrap;html=1;arcSize=0;strokeWidth=2;fontSize=10;fontStyle=1" vertex="1" parent="1">
          <mxGeometry x="-800" y="1040" width="120" height="40" as="geometry" />
        </mxCell>
        <mxCell id="BatN52UNzMT4k8E99eQ0-98" style="edgeStyle=orthogonalEdgeStyle;rounded=0;orthogonalLoop=1;jettySize=auto;html=1;exitX=0.5;exitY=1;exitDx=0;exitDy=0;strokeWidth=2;entryX=0.5;entryY=0;entryDx=0;entryDy=0;" edge="1" parent="1" source="BatN52UNzMT4k8E99eQ0-93" target="BatN52UNzMT4k8E99eQ0-200">
          <mxGeometry relative="1" as="geometry" />
        </mxCell>
        <mxCell id="BatN52UNzMT4k8E99eQ0-103" style="edgeStyle=orthogonalEdgeStyle;rounded=0;orthogonalLoop=1;jettySize=auto;html=1;exitX=1;exitY=0.5;exitDx=0;exitDy=0;entryX=1;entryY=0.5;entryDx=0;entryDy=0;strokeColor=#990000;strokeWidth=2;" edge="1" parent="1" source="BatN52UNzMT4k8E99eQ0-93" target="BatN52UNzMT4k8E99eQ0-88">
          <mxGeometry relative="1" as="geometry" />
        </mxCell>
        <mxCell id="BatN52UNzMT4k8E99eQ0-93" value="적용 대상 필요?" style="rhombus;whiteSpace=wrap;html=1;strokeWidth=2;fontSize=10;fontStyle=1" vertex="1" parent="1">
          <mxGeometry x="-320" y="920" width="120" height="40" as="geometry" />
        </mxCell>
        <mxCell id="BatN52UNzMT4k8E99eQ0-101" style="edgeStyle=orthogonalEdgeStyle;rounded=0;orthogonalLoop=1;jettySize=auto;html=1;exitX=0.5;exitY=1;exitDx=0;exitDy=0;strokeWidth=2;" edge="1" parent="1" source="BatN52UNzMT4k8E99eQ0-97" target="BatN52UNzMT4k8E99eQ0-88">
          <mxGeometry relative="1" as="geometry" />
        </mxCell>
        <mxCell id="BatN52UNzMT4k8E99eQ0-102" style="edgeStyle=orthogonalEdgeStyle;rounded=0;orthogonalLoop=1;jettySize=auto;html=1;exitX=0;exitY=0.5;exitDx=0;exitDy=0;strokeColor=#990000;strokeWidth=2;" edge="1" parent="1" source="BatN52UNzMT4k8E99eQ0-97" target="BatN52UNzMT4k8E99eQ0-99">
          <mxGeometry relative="1" as="geometry" />
        </mxCell>
        <mxCell id="BatN52UNzMT4k8E99eQ0-97" value="몬스터 공격&lt;div&gt;범위안?&lt;/div&gt;" style="rhombus;whiteSpace=wrap;html=1;strokeWidth=2;fontSize=10;fontStyle=1" vertex="1" parent="1">
          <mxGeometry x="-320" y="1040" width="120" height="40" as="geometry" />
        </mxCell>
        <mxCell id="BatN52UNzMT4k8E99eQ0-100" style="edgeStyle=orthogonalEdgeStyle;rounded=0;orthogonalLoop=1;jettySize=auto;html=1;exitX=0.5;exitY=1;exitDx=0;exitDy=0;entryX=0.5;entryY=0;entryDx=0;entryDy=0;strokeWidth=2;" edge="1" parent="1" source="BatN52UNzMT4k8E99eQ0-99" target="BatN52UNzMT4k8E99eQ0-88">
          <mxGeometry relative="1" as="geometry">
            <Array as="points">
              <mxPoint x="-400" y="1090" />
              <mxPoint x="-260" y="1090" />
            </Array>
          </mxGeometry>
        </mxCell>
        <mxCell id="BatN52UNzMT4k8E99eQ0-99" value="몬스터가 공격 범위 안에 들어오는 위치로 이동" style="rounded=1;whiteSpace=wrap;html=1;arcSize=0;strokeWidth=2;fontSize=10;fontStyle=1" vertex="1" parent="1">
          <mxGeometry x="-460" y="1040" width="120" height="40" as="geometry" />
        </mxCell>
        <mxCell id="BatN52UNzMT4k8E99eQ0-120" style="edgeStyle=orthogonalEdgeStyle;rounded=0;orthogonalLoop=1;jettySize=auto;html=1;exitX=0.5;exitY=1;exitDx=0;exitDy=0;entryX=0.5;entryY=0;entryDx=0;entryDy=0;strokeWidth=2;" edge="1" parent="1" source="BatN52UNzMT4k8E99eQ0-117" target="BatN52UNzMT4k8E99eQ0-122">
          <mxGeometry relative="1" as="geometry">
            <mxPoint x="-539.9655172413791" y="1320.0000000000002" as="targetPoint" />
          </mxGeometry>
        </mxCell>
        <mxCell id="BatN52UNzMT4k8E99eQ0-128" style="edgeStyle=orthogonalEdgeStyle;rounded=0;orthogonalLoop=1;jettySize=auto;html=1;exitX=0;exitY=0.5;exitDx=0;exitDy=0;entryX=0;entryY=0.5;entryDx=0;entryDy=0;strokeColor=#990000;strokeWidth=2;" edge="1" parent="1" source="BatN52UNzMT4k8E99eQ0-117" target="BatN52UNzMT4k8E99eQ0-126">
          <mxGeometry relative="1" as="geometry" />
        </mxCell>
        <mxCell id="BatN52UNzMT4k8E99eQ0-117" value="오브젝트 타격?" style="rhombus;whiteSpace=wrap;html=1;strokeWidth=2;fontSize=10;fontStyle=1" vertex="1" parent="1">
          <mxGeometry x="-600" y="1260" width="120" height="40" as="geometry" />
        </mxCell>
        <mxCell id="BatN52UNzMT4k8E99eQ0-124" style="edgeStyle=orthogonalEdgeStyle;rounded=0;orthogonalLoop=1;jettySize=auto;html=1;exitX=0.5;exitY=1;exitDx=0;exitDy=0;strokeWidth=2;" edge="1" parent="1" source="BatN52UNzMT4k8E99eQ0-122" target="BatN52UNzMT4k8E99eQ0-123">
          <mxGeometry relative="1" as="geometry" />
        </mxCell>
        <mxCell id="BatN52UNzMT4k8E99eQ0-122" value="오브젝트 파괴" style="rounded=1;whiteSpace=wrap;html=1;arcSize=0;strokeWidth=2;fontSize=10;fontStyle=1" vertex="1" parent="1">
          <mxGeometry x="-600" y="1320" width="120" height="40" as="geometry" />
        </mxCell>
        <mxCell id="BatN52UNzMT4k8E99eQ0-127" style="edgeStyle=orthogonalEdgeStyle;rounded=0;orthogonalLoop=1;jettySize=auto;html=1;exitX=0.5;exitY=1;exitDx=0;exitDy=0;strokeWidth=2;" edge="1" parent="1" source="BatN52UNzMT4k8E99eQ0-123" target="BatN52UNzMT4k8E99eQ0-126">
          <mxGeometry relative="1" as="geometry" />
        </mxCell>
        <mxCell id="BatN52UNzMT4k8E99eQ0-123" value="파괴한 오브젝트&lt;div&gt;&amp;nbsp;보상 획득&lt;/div&gt;" style="rounded=1;whiteSpace=wrap;html=1;arcSize=0;strokeWidth=2;fontSize=10;fontStyle=1" vertex="1" parent="1">
          <mxGeometry x="-600" y="1380" width="120" height="40" as="geometry" />
        </mxCell>
        <mxCell id="BatN52UNzMT4k8E99eQ0-130" style="edgeStyle=orthogonalEdgeStyle;rounded=0;orthogonalLoop=1;jettySize=auto;html=1;exitX=0.5;exitY=1;exitDx=0;exitDy=0;entryX=0.5;entryY=0;entryDx=0;entryDy=0;strokeWidth=2;" edge="1" parent="1" source="BatN52UNzMT4k8E99eQ0-126" target="BatN52UNzMT4k8E99eQ0-16">
          <mxGeometry relative="1" as="geometry" />
        </mxCell>
        <mxCell id="BatN52UNzMT4k8E99eQ0-141" style="edgeStyle=orthogonalEdgeStyle;rounded=0;orthogonalLoop=1;jettySize=auto;html=1;exitX=1;exitY=0.5;exitDx=0;exitDy=0;entryX=0;entryY=0.5;entryDx=0;entryDy=0;strokeColor=#990000;strokeWidth=2;" edge="1" parent="1" source="BatN52UNzMT4k8E99eQ0-126" target="BatN52UNzMT4k8E99eQ0-139">
          <mxGeometry relative="1" as="geometry" />
        </mxCell>
        <mxCell id="BatN52UNzMT4k8E99eQ0-126" value="몬스터 타격?" style="rhombus;whiteSpace=wrap;html=1;strokeWidth=2;fontSize=10;fontStyle=1" vertex="1" parent="1">
          <mxGeometry x="-600" y="1440" width="120" height="40" as="geometry" />
        </mxCell>
        <mxCell id="BatN52UNzMT4k8E99eQ0-136" style="edgeStyle=orthogonalEdgeStyle;rounded=0;orthogonalLoop=1;jettySize=auto;html=1;exitX=0.5;exitY=1;exitDx=0;exitDy=0;strokeWidth=2;" edge="1" parent="1" source="BatN52UNzMT4k8E99eQ0-131" target="BatN52UNzMT4k8E99eQ0-135">
          <mxGeometry relative="1" as="geometry" />
        </mxCell>
        <mxCell id="BatN52UNzMT4k8E99eQ0-218" style="edgeStyle=orthogonalEdgeStyle;rounded=0;orthogonalLoop=1;jettySize=auto;html=1;exitX=1;exitY=0.5;exitDx=0;exitDy=0;entryX=0.5;entryY=0;entryDx=0;entryDy=0;strokeColor=#990000;strokeWidth=2;" edge="1" parent="1" source="BatN52UNzMT4k8E99eQ0-131" target="BatN52UNzMT4k8E99eQ0-133">
          <mxGeometry relative="1" as="geometry" />
        </mxCell>
        <mxCell id="BatN52UNzMT4k8E99eQ0-131" value="공격형 비술" style="rhombus;whiteSpace=wrap;html=1;strokeWidth=2;fontSize=10;fontStyle=1" vertex="1" parent="1">
          <mxGeometry x="-320" y="1160" width="120" height="40" as="geometry" />
        </mxCell>
        <mxCell id="BatN52UNzMT4k8E99eQ0-133" value="종료" style="rounded=1;whiteSpace=wrap;html=1;arcSize=50;strokeWidth=2;fontSize=10;fontStyle=1" vertex="1" parent="1">
          <mxGeometry y="1240" width="40" height="40" as="geometry" />
        </mxCell>
        <mxCell id="BatN52UNzMT4k8E99eQ0-147" style="edgeStyle=orthogonalEdgeStyle;rounded=0;orthogonalLoop=1;jettySize=auto;html=1;exitX=0.5;exitY=1;exitDx=0;exitDy=0;strokeWidth=2;" edge="1" parent="1" source="BatN52UNzMT4k8E99eQ0-135" target="BatN52UNzMT4k8E99eQ0-146">
          <mxGeometry relative="1" as="geometry" />
        </mxCell>
        <mxCell id="BatN52UNzMT4k8E99eQ0-219" style="edgeStyle=orthogonalEdgeStyle;rounded=0;orthogonalLoop=1;jettySize=auto;html=1;exitX=1;exitY=0.5;exitDx=0;exitDy=0;strokeColor=#990000;strokeWidth=2;" edge="1" parent="1" source="BatN52UNzMT4k8E99eQ0-135">
          <mxGeometry relative="1" as="geometry">
            <mxPoint y="1260" as="targetPoint" />
          </mxGeometry>
        </mxCell>
        <mxCell id="BatN52UNzMT4k8E99eQ0-135" value="타격?" style="rhombus;whiteSpace=wrap;html=1;strokeWidth=2;fontSize=10;fontStyle=1" vertex="1" parent="1">
          <mxGeometry x="-320" y="1220" width="120" height="40" as="geometry" />
        </mxCell>
        <mxCell id="BatN52UNzMT4k8E99eQ0-139" value="종료" style="rounded=1;whiteSpace=wrap;html=1;arcSize=50;strokeWidth=2;fontSize=10;fontStyle=1" vertex="1" parent="1">
          <mxGeometry x="-460" y="1440" width="40" height="40" as="geometry" />
        </mxCell>
        <mxCell id="BatN52UNzMT4k8E99eQ0-143" style="edgeStyle=orthogonalEdgeStyle;rounded=0;orthogonalLoop=1;jettySize=auto;html=1;exitX=0.5;exitY=1;exitDx=0;exitDy=0;strokeWidth=2;" edge="1" parent="1" source="BatN52UNzMT4k8E99eQ0-142" target="BatN52UNzMT4k8E99eQ0-117">
          <mxGeometry relative="1" as="geometry" />
        </mxCell>
        <mxCell id="BatN52UNzMT4k8E99eQ0-142" value="타격&lt;div&gt;시작&lt;/div&gt;" style="rounded=1;whiteSpace=wrap;html=1;arcSize=50;strokeWidth=2;fontSize=10;fontStyle=1" vertex="1" parent="1">
          <mxGeometry x="-600" y="1200" width="120" height="40" as="geometry" />
        </mxCell>
        <mxCell id="BatN52UNzMT4k8E99eQ0-144" value="타격" style="rounded=1;whiteSpace=wrap;html=1;arcSize=50;strokeWidth=2;fontSize=10;fontStyle=1" vertex="1" parent="1">
          <mxGeometry x="-800" y="1160" width="120" height="40" as="geometry" />
        </mxCell>
        <mxCell id="BatN52UNzMT4k8E99eQ0-146" value="타격" style="rounded=1;whiteSpace=wrap;html=1;arcSize=50;strokeWidth=2;fontSize=10;fontStyle=1" vertex="1" parent="1">
          <mxGeometry x="-320" y="1280" width="120" height="40" as="geometry" />
        </mxCell>
        <mxCell id="BatN52UNzMT4k8E99eQ0-152" value="전투 시작" style="rounded=1;whiteSpace=wrap;html=1;arcSize=50;strokeWidth=2;fontSize=10;fontStyle=1" vertex="1" parent="1">
          <mxGeometry x="320" y="1460" width="120" height="40" as="geometry" />
        </mxCell>
        <mxCell id="BatN52UNzMT4k8E99eQ0-181" style="edgeStyle=orthogonalEdgeStyle;rounded=0;orthogonalLoop=1;jettySize=auto;html=1;exitX=0.5;exitY=1;exitDx=0;exitDy=0;entryX=0.5;entryY=0;entryDx=0;entryDy=0;strokeWidth=2;" edge="1" parent="1" source="BatN52UNzMT4k8E99eQ0-154" target="BatN52UNzMT4k8E99eQ0-184">
          <mxGeometry relative="1" as="geometry" />
        </mxCell>
        <mxCell id="BatN52UNzMT4k8E99eQ0-154" value="피습&lt;div&gt;시작&lt;/div&gt;" style="rounded=1;whiteSpace=wrap;html=1;arcSize=50;strokeWidth=2;fontSize=10;fontStyle=1" vertex="1" parent="1">
          <mxGeometry x="320" y="1160" width="120" height="40" as="geometry" />
        </mxCell>
        <mxCell id="BatN52UNzMT4k8E99eQ0-188" style="edgeStyle=orthogonalEdgeStyle;rounded=0;orthogonalLoop=1;jettySize=auto;html=1;exitX=0.5;exitY=1;exitDx=0;exitDy=0;strokeWidth=2;" edge="1" parent="1" source="BatN52UNzMT4k8E99eQ0-180" target="BatN52UNzMT4k8E99eQ0-182">
          <mxGeometry relative="1" as="geometry" />
        </mxCell>
        <mxCell id="BatN52UNzMT4k8E99eQ0-180" value="PC 공격" style="rounded=1;whiteSpace=wrap;html=1;arcSize=0;strokeWidth=2;fontSize=10;fontStyle=1" vertex="1" parent="1">
          <mxGeometry x="320" y="1280" width="120" height="40" as="geometry" />
        </mxCell>
        <mxCell id="BatN52UNzMT4k8E99eQ0-189" style="edgeStyle=orthogonalEdgeStyle;rounded=0;orthogonalLoop=1;jettySize=auto;html=1;exitX=0;exitY=0.5;exitDx=0;exitDy=0;entryX=0;entryY=0.5;entryDx=0;entryDy=0;strokeColor=#990000;strokeWidth=2;" edge="1" parent="1" source="BatN52UNzMT4k8E99eQ0-182" target="BatN52UNzMT4k8E99eQ0-184">
          <mxGeometry relative="1" as="geometry" />
        </mxCell>
        <mxCell id="BatN52UNzMT4k8E99eQ0-190" style="edgeStyle=orthogonalEdgeStyle;rounded=0;orthogonalLoop=1;jettySize=auto;html=1;exitX=0.5;exitY=1;exitDx=0;exitDy=0;strokeWidth=2;" edge="1" parent="1" source="BatN52UNzMT4k8E99eQ0-182" target="BatN52UNzMT4k8E99eQ0-191">
          <mxGeometry relative="1" as="geometry">
            <mxPoint x="380" y="1400" as="targetPoint" />
          </mxGeometry>
        </mxCell>
        <mxCell id="BatN52UNzMT4k8E99eQ0-182" value="타격?" style="rhombus;whiteSpace=wrap;html=1;strokeWidth=2;fontSize=10;fontStyle=1" vertex="1" parent="1">
          <mxGeometry x="320" y="1340" width="120" height="40" as="geometry" />
        </mxCell>
        <mxCell id="BatN52UNzMT4k8E99eQ0-185" style="edgeStyle=orthogonalEdgeStyle;rounded=0;orthogonalLoop=1;jettySize=auto;html=1;exitX=0.5;exitY=1;exitDx=0;exitDy=0;entryX=0.5;entryY=0;entryDx=0;entryDy=0;strokeWidth=2;" edge="1" parent="1" source="BatN52UNzMT4k8E99eQ0-184" target="BatN52UNzMT4k8E99eQ0-180">
          <mxGeometry relative="1" as="geometry" />
        </mxCell>
        <mxCell id="BatN52UNzMT4k8E99eQ0-187" style="edgeStyle=orthogonalEdgeStyle;rounded=0;orthogonalLoop=1;jettySize=auto;html=1;exitX=1;exitY=0.5;exitDx=0;exitDy=0;entryX=0;entryY=0.5;entryDx=0;entryDy=0;strokeColor=#990000;strokeWidth=2;" edge="1" parent="1" source="BatN52UNzMT4k8E99eQ0-184" target="BatN52UNzMT4k8E99eQ0-186">
          <mxGeometry relative="1" as="geometry" />
        </mxCell>
        <mxCell id="BatN52UNzMT4k8E99eQ0-184" value="몬스터 포착 상태?" style="rhombus;whiteSpace=wrap;html=1;strokeWidth=2;fontSize=10;fontStyle=1" vertex="1" parent="1">
          <mxGeometry x="320" y="1220" width="120" height="40" as="geometry" />
        </mxCell>
        <mxCell id="BatN52UNzMT4k8E99eQ0-186" value="종료" style="rounded=1;whiteSpace=wrap;html=1;arcSize=50;strokeWidth=2;fontSize=10;fontStyle=1" vertex="1" parent="1">
          <mxGeometry x="460" y="1220" width="40" height="40" as="geometry" />
        </mxCell>
        <mxCell id="BatN52UNzMT4k8E99eQ0-192" style="edgeStyle=orthogonalEdgeStyle;rounded=0;orthogonalLoop=1;jettySize=auto;html=1;exitX=0.5;exitY=1;exitDx=0;exitDy=0;entryX=0.5;entryY=0;entryDx=0;entryDy=0;strokeWidth=2;" edge="1" parent="1" source="BatN52UNzMT4k8E99eQ0-191" target="BatN52UNzMT4k8E99eQ0-152">
          <mxGeometry relative="1" as="geometry" />
        </mxCell>
        <mxCell id="BatN52UNzMT4k8E99eQ0-191" value="전투에서&amp;nbsp;&lt;div&gt;몬스터 먼저 행동&lt;/div&gt;" style="rounded=1;whiteSpace=wrap;html=1;arcSize=0;strokeWidth=2;fontSize=10;fontStyle=1" vertex="1" parent="1">
          <mxGeometry x="320" y="1400" width="120" height="40" as="geometry" />
        </mxCell>
        <mxCell id="BatN52UNzMT4k8E99eQ0-204" style="edgeStyle=orthogonalEdgeStyle;rounded=0;orthogonalLoop=1;jettySize=auto;html=1;exitX=0.5;exitY=1;exitDx=0;exitDy=0;strokeWidth=2;" edge="1" parent="1" source="BatN52UNzMT4k8E99eQ0-199" target="BatN52UNzMT4k8E99eQ0-93">
          <mxGeometry relative="1" as="geometry" />
        </mxCell>
        <mxCell id="BatN52UNzMT4k8E99eQ0-207" style="edgeStyle=orthogonalEdgeStyle;rounded=0;orthogonalLoop=1;jettySize=auto;html=1;exitX=1;exitY=0.5;exitDx=0;exitDy=0;entryX=0;entryY=0.5;entryDx=0;entryDy=0;strokeColor=#990000;strokeWidth=2;" edge="1" parent="1" source="BatN52UNzMT4k8E99eQ0-199" target="BatN52UNzMT4k8E99eQ0-205">
          <mxGeometry relative="1" as="geometry" />
        </mxCell>
        <mxCell id="BatN52UNzMT4k8E99eQ0-199" value="비술 포인트 보유?" style="rhombus;whiteSpace=wrap;html=1;strokeWidth=2;fontSize=10;fontStyle=1" vertex="1" parent="1">
          <mxGeometry x="-320" y="860" width="120" height="40" as="geometry" />
        </mxCell>
        <mxCell id="BatN52UNzMT4k8E99eQ0-201" style="edgeStyle=orthogonalEdgeStyle;rounded=0;orthogonalLoop=1;jettySize=auto;html=1;exitX=0.5;exitY=1;exitDx=0;exitDy=0;entryX=0.5;entryY=0;entryDx=0;entryDy=0;strokeWidth=2;" edge="1" parent="1" source="BatN52UNzMT4k8E99eQ0-200" target="BatN52UNzMT4k8E99eQ0-97">
          <mxGeometry relative="1" as="geometry" />
        </mxCell>
        <mxCell id="BatN52UNzMT4k8E99eQ0-202" style="edgeStyle=orthogonalEdgeStyle;rounded=0;orthogonalLoop=1;jettySize=auto;html=1;exitX=1;exitY=0.5;exitDx=0;exitDy=0;entryX=1;entryY=0.5;entryDx=0;entryDy=0;strokeColor=#990000;strokeWidth=2;" edge="1" parent="1" source="BatN52UNzMT4k8E99eQ0-200" target="BatN52UNzMT4k8E99eQ0-88">
          <mxGeometry relative="1" as="geometry" />
        </mxCell>
        <mxCell id="BatN52UNzMT4k8E99eQ0-200" value="타겟 유무?" style="rhombus;whiteSpace=wrap;html=1;strokeWidth=2;fontSize=10;fontStyle=1" vertex="1" parent="1">
          <mxGeometry x="-320" y="980" width="120" height="40" as="geometry" />
        </mxCell>
        <mxCell id="BatN52UNzMT4k8E99eQ0-208" style="edgeStyle=orthogonalEdgeStyle;rounded=0;orthogonalLoop=1;jettySize=auto;html=1;entryX=0.5;entryY=0;entryDx=0;entryDy=0;strokeWidth=2;" edge="1" parent="1" source="BatN52UNzMT4k8E99eQ0-205" target="BatN52UNzMT4k8E99eQ0-206">
          <mxGeometry relative="1" as="geometry" />
        </mxCell>
        <mxCell id="BatN52UNzMT4k8E99eQ0-205" value="&lt;span style=&quot;font-size: 10px; font-weight: 700;&quot;&gt;비술 포인트 부족 팝업&lt;/span&gt;" style="shape=document;whiteSpace=wrap;html=1;boundedLbl=1;strokeWidth=2;" vertex="1" parent="1">
          <mxGeometry x="-120" y="860" width="120" height="40" as="geometry" />
        </mxCell>
        <mxCell id="BatN52UNzMT4k8E99eQ0-211" style="edgeStyle=orthogonalEdgeStyle;rounded=0;orthogonalLoop=1;jettySize=auto;html=1;exitX=0.5;exitY=1;exitDx=0;exitDy=0;strokeWidth=2;" edge="1" parent="1" source="BatN52UNzMT4k8E99eQ0-206" target="BatN52UNzMT4k8E99eQ0-209">
          <mxGeometry relative="1" as="geometry" />
        </mxCell>
        <mxCell id="BatN52UNzMT4k8E99eQ0-216" style="edgeStyle=orthogonalEdgeStyle;rounded=0;orthogonalLoop=1;jettySize=auto;html=1;exitX=1;exitY=0.5;exitDx=0;exitDy=0;entryX=0.5;entryY=0;entryDx=0;entryDy=0;strokeColor=#990000;strokeWidth=2;" edge="1" parent="1" source="BatN52UNzMT4k8E99eQ0-206" target="BatN52UNzMT4k8E99eQ0-133">
          <mxGeometry relative="1" as="geometry" />
        </mxCell>
        <mxCell id="BatN52UNzMT4k8E99eQ0-206" value="비술 포인트 회복&lt;div&gt;아이템 보유?&lt;/div&gt;" style="rhombus;whiteSpace=wrap;html=1;strokeWidth=2;fontSize=10;fontStyle=1" vertex="1" parent="1">
          <mxGeometry x="-120" y="920" width="120" height="40" as="geometry" />
        </mxCell>
        <mxCell id="BatN52UNzMT4k8E99eQ0-212" style="edgeStyle=orthogonalEdgeStyle;rounded=0;orthogonalLoop=1;jettySize=auto;html=1;strokeWidth=2;" edge="1" parent="1" source="BatN52UNzMT4k8E99eQ0-209" target="BatN52UNzMT4k8E99eQ0-210">
          <mxGeometry relative="1" as="geometry" />
        </mxCell>
        <mxCell id="BatN52UNzMT4k8E99eQ0-209" value="&lt;span style=&quot;font-size: 10px;&quot;&gt;&lt;b&gt;빠른 회복 창 팝업&lt;/b&gt;&lt;/span&gt;" style="shape=document;whiteSpace=wrap;html=1;boundedLbl=1;strokeWidth=2;" vertex="1" parent="1">
          <mxGeometry x="-120" y="980" width="120" height="40" as="geometry" />
        </mxCell>
        <mxCell id="BatN52UNzMT4k8E99eQ0-214" style="edgeStyle=orthogonalEdgeStyle;rounded=0;orthogonalLoop=1;jettySize=auto;html=1;exitX=0.5;exitY=1;exitDx=0;exitDy=0;strokeWidth=2;" edge="1" parent="1" source="BatN52UNzMT4k8E99eQ0-210" target="BatN52UNzMT4k8E99eQ0-213">
          <mxGeometry relative="1" as="geometry" />
        </mxCell>
        <mxCell id="BatN52UNzMT4k8E99eQ0-217" style="edgeStyle=orthogonalEdgeStyle;rounded=0;orthogonalLoop=1;jettySize=auto;html=1;exitX=1;exitY=0.5;exitDx=0;exitDy=0;entryX=0.5;entryY=0;entryDx=0;entryDy=0;strokeColor=#990000;strokeWidth=2;" edge="1" parent="1" source="BatN52UNzMT4k8E99eQ0-210" target="BatN52UNzMT4k8E99eQ0-133">
          <mxGeometry relative="1" as="geometry" />
        </mxCell>
        <mxCell id="BatN52UNzMT4k8E99eQ0-210" value="회복 아이템 사용?" style="rhombus;whiteSpace=wrap;html=1;strokeWidth=2;fontSize=10;fontStyle=1" vertex="1" parent="1">
          <mxGeometry x="-120" y="1040" width="120" height="40" as="geometry" />
        </mxCell>
        <mxCell id="BatN52UNzMT4k8E99eQ0-215" style="edgeStyle=orthogonalEdgeStyle;rounded=0;orthogonalLoop=1;jettySize=auto;html=1;exitX=0;exitY=0.5;exitDx=0;exitDy=0;entryX=0.5;entryY=0;entryDx=0;entryDy=0;strokeWidth=2;" edge="1" parent="1" source="BatN52UNzMT4k8E99eQ0-213" target="BatN52UNzMT4k8E99eQ0-93">
          <mxGeometry relative="1" as="geometry">
            <Array as="points">
              <mxPoint x="-150" y="1120" />
              <mxPoint x="-150" y="910" />
              <mxPoint x="-260" y="910" />
            </Array>
          </mxGeometry>
        </mxCell>
        <mxCell id="BatN52UNzMT4k8E99eQ0-213" value="비술 포인트 N회복" style="rounded=1;whiteSpace=wrap;html=1;arcSize=0;strokeWidth=2;fontSize=10;fontStyle=1" vertex="1" parent="1">
          <mxGeometry x="-120" y="1100" width="120" height="40" as="geometry" />
        </mxCell>
      </root>
    </mxGraphModel>
  </diagram>
</mxfile>
